<?xml version="1.0" encoding="UTF-8" standalone="no"?>
<svg
   xmlns:dc="http://purl.org/dc/elements/1.1/"
   xmlns:cc="http://creativecommons.org/ns#"
   xmlns:rdf="http://www.w3.org/1999/02/22-rdf-syntax-ns#"
   xmlns:svg="http://www.w3.org/2000/svg"
   xmlns="http://www.w3.org/2000/svg"
   xmlns:sodipodi="http://sodipodi.sourceforge.net/DTD/sodipodi-0.dtd"
   xmlns:inkscape="http://www.inkscape.org/namespaces/inkscape"
   version="1.1"
   id="svg38487"
   viewBox="0 0 96 95.999997"
   height="96"
   width="96"
   inkscape:version="0.91 r13725"
   sodipodi:docname="0.svg"
   inkscape:export-filename="/home/shmuel/projects/0/favicon-96x96.png"
   inkscape:export-xdpi="90"
   inkscape:export-ydpi="90">
  <sodipodi:namedview
     pagecolor="#ffffff"
     bordercolor="#666666"
     borderopacity="1"
     objecttolerance="10"
     gridtolerance="10"
     guidetolerance="10"
     inkscape:pageopacity="0"
     inkscape:pageshadow="2"
     inkscape:window-width="1366"
     inkscape:window-height="705"
     id="namedview107"
     showgrid="false"
     inkscape:zoom="3.856236"
     inkscape:cx="38.012776"
     inkscape:cy="51.662951"
     inkscape:window-x="0"
     inkscape:window-y="27"
     inkscape:window-maximized="1"
     inkscape:current-layer="svg38487"
     units="px" />
  <defs
     id="defs38489">
    <clipPath
       id="clipPath37699"
       clipPathUnits="userSpaceOnUse">
      <path
         id="path37701"
         d="m 157.965,573.214 9.108,0 0,10.945 -9.108,0 0,-10.945 z"
         inkscape:connector-curvature="0" />
    </clipPath>
    <clipPath
       id="clipPath37711"
       clipPathUnits="userSpaceOnUse">
      <path
         id="path37713"
         d="m 140.437,562.153 10.825,0 0,9.154 -10.825,0 0,-9.154 z"
         inkscape:connector-curvature="0" />
    </clipPath>
    <clipPath
       id="clipPath37723"
       clipPathUnits="userSpaceOnUse">
      <path
         id="path37725"
         d="m 147.248,541.553 9.503,0 0,10.362 -9.503,0 0,-10.362 z"
         inkscape:connector-curvature="0" />
    </clipPath>
    <clipPath
       id="clipPath37735"
       clipPathUnits="userSpaceOnUse">
      <path
         id="path37737"
         d="m 168.376,541.652 9.715,0 0,10.13 -9.715,0 0,-10.13 z"
         inkscape:connector-curvature="0" />
    </clipPath>
    <clipPath
       id="clipPath37747"
       clipPathUnits="userSpaceOnUse">
      <path
         id="path37749"
         d="m 174.031,562.239 10.682,0 0,9.226 -10.682,0 0,-9.226 z"
         inkscape:connector-curvature="0" />
    </clipPath>
    <clipPath
       id="clipPath37763"
       clipPathUnits="userSpaceOnUse">
      <path
         id="path37765"
         d="m 151.662,564.754 21.277,0 0,9.992 -21.277,0 0,-9.992 z"
         inkscape:connector-curvature="0" />
    </clipPath>
    <clipPath
       id="clipPath37779"
       clipPathUnits="userSpaceOnUse">
      <path
         id="path37781"
         d="m 147.347,553.936 12.316,0 0,20.637 -12.316,0 0,-20.637 z"
         inkscape:connector-curvature="0" />
    </clipPath>
    <clipPath
       id="clipPath37811"
       clipPathUnits="userSpaceOnUse">
      <path
         id="path37813"
         d="m 147.227,545.651 18.646,0 0,15.327 -18.646,0 0,-15.327 z"
         inkscape:connector-curvature="0" />
    </clipPath>
    <clipPath
       id="clipPath37843"
       clipPathUnits="userSpaceOnUse">
      <path
         id="path37845"
         d="m 165.022,554.327 12.61,0 0,20.521 -12.61,0 0,-20.521 z"
         inkscape:connector-curvature="0" />
    </clipPath>
    <clipPath
       id="clipPath37867"
       clipPathUnits="userSpaceOnUse">
      <path
         id="path37869"
         d="m 159.061,545.669 18.424,0 0,15.64 -18.424,0 0,-15.64 z"
         inkscape:connector-curvature="0" />
    </clipPath>
  </defs>
  <metadata
     id="metadata38492">
    <rdf:RDF>
      <cc:Work
         rdf:about="">
        <dc:format>image/svg+xml</dc:format>
        <dc:type
           rdf:resource="http://purl.org/dc/dcmitype/StillImage" />
        <dc:title></dc:title>
      </cc:Work>
    </rdf:RDF>
  </metadata>
  <g
     transform="matrix(0.1076229,0,0,0.1076229,7.9774652,9.3981915)"
     id="layer1"
     inkscape:export-filename="/home/shmuel/projects/0/apple-touch-icon-114x114.png"
     inkscape:export-xdpi="90"
     inkscape:export-ydpi="90">
    <g
       transform="matrix(16.2514,0,0,-16.2514,-2273.5587,9507.7049)"
       id="g38296">
      <g
         id="g37695">
        <g
           id="g37697"
           clip-path="url(#clipPath37699)">
          <g
             id="g37703"
             transform="translate(162.7476,573.2139)">
            <path
               d="m 0,0 c -2.515,0 -4.782,3.873 -4.782,6.39 0,2.503 2.017,4.535 4.512,4.555 l 0.079,0 C 2.295,10.925 4.307,8.916 4.326,6.427 l 0,-0.081 C 4.307,3.83 2.504,0 0,0"
               style="fill:#ec1e27;fill-opacity:1;fill-rule:nonzero;stroke:none"
               id="path37705"
               inkscape:connector-curvature="0" />
          </g>
        </g>
      </g>
      <g
         id="g37707">
        <g
           id="g37709"
           clip-path="url(#clipPath37711)">
          <g
             id="g37715"
             transform="translate(145.4683,562.1523)">
            <path
               d="m 0,0 c -0.687,0 -1.335,0.085 -1.879,0.266 -1.924,0.622 -3.146,2.401 -3.152,4.315 l 0,0.032 c 0,0.462 0.076,0.932 0.225,1.392 0.626,1.923 2.406,3.143 4.322,3.149 l 0.021,0 C 0,9.154 0.472,9.083 0.934,8.93 3.066,8.238 5.78,5.848 5.794,3.641 l 0,-0.042 C 5.79,3.345 5.754,3.092 5.674,2.842 5.072,0.996 2.322,0 0,0"
               style="fill:#2957a8;fill-opacity:1;fill-rule:nonzero;stroke:none"
               id="path37717"
               inkscape:connector-curvature="0" />
          </g>
        </g>
      </g>
      <g
         id="g37719">
        <g
           id="g37721"
           clip-path="url(#clipPath37723)">
          <g
             id="g37727"
             transform="translate(151.8257,541.5537)">
            <path
               d="m 0,0 -0.052,0 c -0.922,0.006 -1.846,0.29 -2.648,0.875 -1.225,0.886 -1.874,2.274 -1.877,3.676 -0.002,0.934 0.28,1.874 0.868,2.685 1.127,1.549 3.564,3.12 5.563,3.126 l 0.029,0 C 2.496,10.36 3.066,10.209 3.548,9.86 4.51,9.156 4.92,7.786 4.926,6.318 l 0,-0.061 C 4.92,4.648 4.434,2.935 3.664,1.878 2.779,0.66 1.4,0.006 0,0"
               style="fill:#7c154d;fill-opacity:1;fill-rule:nonzero;stroke:none"
               id="path37729"
               inkscape:connector-curvature="0" />
          </g>
        </g>
      </g>
      <g
         id="g37731">
        <g
           id="g37733"
           clip-path="url(#clipPath37735)">
          <g
             id="g37739"
             transform="translate(173.5386,541.6528)">
            <path
               d="m 0,0 c -1.407,0 -2.797,0.65 -3.69,1.876 -0.841,1.162 -1.467,3.022 -1.473,4.682 l 0,0.048 c 0.003,1.235 0.354,2.353 1.222,2.984 0.517,0.377 1.177,0.54 1.892,0.54 2.074,0 4.63,-1.38 5.732,-2.898 C 4.273,6.423 4.557,5.483 4.555,4.549 4.551,3.143 3.9,1.761 2.676,0.869 1.867,0.284 0.93,0 0,0"
               style="fill:#f14625;fill-opacity:1;fill-rule:nonzero;stroke:none"
               id="path37741"
               inkscape:connector-curvature="0" />
          </g>
        </g>
      </g>
      <g
         id="g37743">
        <g
           id="g37745"
           clip-path="url(#clipPath37747)">
          <g
             id="g37751"
             transform="translate(179.1948,562.2393)">
            <path
               d="M 0,0 C -2.157,0.01 -4.485,0.764 -5.041,2.477 -5.126,2.737 -5.164,3.009 -5.168,3.282 -5.164,3.009 -5.126,2.737 -5.041,2.477 -4.485,0.764 -2.157,0.01 0,0 m 5.007,2.574 c 0.33,0.637 0.509,1.347 0.512,2.078 l 0,-0.011 C 5.513,3.915 5.334,3.205 5.007,2.574 m -10.175,0.744 0,0 c 0.012,2.275 2.599,4.995 4.721,5.683 0.463,0.153 0.936,0.225 1.4,0.225 -0.464,0 -0.937,-0.072 -1.4,-0.225 C -2.569,8.313 -5.156,5.593 -5.168,3.318 M 5.519,4.683 C 5.518,5.145 5.443,5.616 5.293,6.077 5.44,5.616 5.516,5.152 5.519,4.694 l 0,-0.011 M 5.293,6.077 C 4.951,7.131 4.26,7.974 3.394,8.52 4.26,7.974 4.951,7.131 5.293,6.077"
               style="fill:#5c7f42;fill-opacity:1;fill-rule:nonzero;stroke:none"
               id="path37753"
               inkscape:connector-curvature="0" />
          </g>
          <g
             id="g37755"
             transform="translate(179.2554,562.2393)">
            <path
               d="m 0,0 -0.061,0 c -2.157,0.01 -4.483,0.764 -5.037,2.477 -0.089,0.26 -0.127,0.532 -0.127,0.805 l 0,0.036 c 0.008,2.275 2.597,4.995 4.721,5.683 0.462,0.153 0.933,0.225 1.397,0.225 l 0.021,0 C 1.78,9.226 2.619,8.972 3.336,8.52 4.203,7.974 4.893,7.131 5.234,6.077 5.383,5.616 5.458,5.145 5.458,4.683 l 0,-0.031 C 5.457,3.921 5.276,3.211 4.95,2.574 4.417,1.549 3.496,0.722 2.311,0.335 1.645,0.119 0.838,0.004 0,0"
               style="fill:#51ace4;fill-opacity:1;fill-rule:nonzero;stroke:none"
               id="path37757"
               inkscape:connector-curvature="0" />
          </g>
        </g>
      </g>
      <g
         id="g37759">
        <g
           id="g37761"
           clip-path="url(#clipPath37763)">
          <g
             id="g37767"
             transform="translate(162.0874,564.7539)">
            <path
               d="m 0,0 0.182,0.006 0.044,0 -0.044,0 L 0,0 m -0.041,0 -0.012,0 0.012,0 M -0.08,0 -0.109,0 -0.08,0 M -0.121,0 C -0.92,0.012 -1.712,0.085 -2.488,0.23 -1.712,0.085 -0.92,0.012 -0.121,0 m 0.382,0.006 0.006,0 -0.006,0 m 0.04,0 0.006,0 -0.006,0 m 0.044,0 0.006,0 -0.006,0 m 0.042,0 0.004,0.002 -0.004,-0.002 m 0.041,0.002 0.004,0 -0.004,0 m 0.243,0.01 0.006,0 -0.006,0 m 0.036,0.002 0.016,0 -0.016,0 m 0.037,0.004 0.024,0 -0.024,0 m 0.04,0 c 0.011,0 0.021,0 0.032,0.002 C 0.805,0.024 0.795,0.024 0.784,0.024 m 0.04,0.002 C 0.84,0.03 0.85,0.03 0.865,0.03 0.85,0.03 0.84,0.03 0.824,0.026 M 0.868,0.03 C 1.607,0.078 2.339,0.181 3.059,0.345 2.339,0.181 1.607,0.078 0.868,0.03 M 0,6.917 C -1.536,6.917 -2.973,7.441 -4.106,8.4 -2.973,7.441 -1.536,6.917 0,6.917 m 0.132,0 0,0 m -4.653,1.868 c 0,0.002 -0.002,0.002 -0.004,0.006 0.002,-0.004 0.004,-0.004 0.004,-0.006 m -0.018,0.018 0,0.006 0,-0.006 m -0.012,0.012 c -0.002,0.002 -0.002,0.006 -0.009,0.006 0.007,0 0.007,-0.004 0.009,-0.006 m -0.017,0.018 c 0,0 -0.003,0.006 -0.006,0.006 0.003,0 0.006,-0.006 0.006,-0.006 m -0.01,0.012 C -4.59,8.853 -4.6,8.863 -4.607,8.871 -4.6,8.863 -4.59,8.853 -4.578,8.845 m -0.029,0.026 c -0.387,0.362 -0.85,0.626 -1.35,0.777 -0.014,0.006 -0.03,0.012 -0.048,0.018 0.519,-0.151 0.995,-0.42 1.398,-0.795"
               style="fill:#b91f25;fill-opacity:1;fill-rule:nonzero;stroke:none"
               id="path37769"
               inkscape:connector-curvature="0" />
          </g>
          <g
             id="g37771"
             transform="translate(162.0874,564.7539)">
            <path
               d="M 0,0 -0.041,0 -0.053,0 -0.08,0 -0.109,0 -0.121,0 c -0.799,0.012 -1.591,0.085 -2.367,0.23 0.078,0.809 0.086,1.628 0.019,2.449 -0.144,1.821 -0.636,3.584 -1.467,5.232 -0.408,0.821 -1.13,1.442 -1.999,1.731 -0.006,0.006 -0.018,0.006 -0.022,0.006 0.5,-0.151 0.963,-0.415 1.35,-0.777 0.007,-0.008 0.017,-0.018 0.029,-0.026 0,0 0.001,-0.004 0.004,-0.006 0.003,0 0.006,-0.006 0.006,-0.006 0.005,-0.006 0.008,-0.006 0.008,-0.012 0.007,0 0.007,-0.004 0.009,-0.006 0,0 0.006,-0.006 0.012,-0.006 l 0,-0.006 c 0.004,-0.006 0.01,-0.01 0.014,-0.012 0.002,-0.004 0.004,-0.004 0.004,-0.006 0,-0.004 0.009,-0.01 0.012,-0.012 C -4.382,8.643 -4.245,8.52 -4.106,8.4 -2.973,7.441 -1.536,6.917 0,6.917 l 0.092,0 0.04,0 C 1.861,6.953 3.508,7.633 4.807,8.839 4.646,8.648 4.512,8.446 4.399,8.224 3.559,6.6 3.074,4.857 2.961,3.036 2.941,2.753 2.935,2.469 2.935,2.186 l 0,-0.012 C 2.935,1.559 2.974,0.952 3.059,0.345 2.339,0.181 1.607,0.078 0.868,0.03 l -0.003,0 c -0.015,0 -0.025,0 -0.041,-0.004 l -0.008,0 C 0.805,0.024 0.795,0.024 0.784,0.024 l -0.016,0 -0.024,0 c -0.007,0 -0.013,0 -0.021,-0.004 l -0.016,0 C 0.697,0.02 0.689,0.018 0.678,0.018 l -0.007,0 C 0.591,0.014 0.512,0.012 0.432,0.008 l -0.004,0 -0.037,0 -0.004,-0.002 -0.036,0 -0.006,0 -0.038,0 -0.006,0 -0.034,0 -0.006,0 -0.035,0 -0.044,0 L 0,0"
               style="fill:#bd1c2e;fill-opacity:1;fill-rule:nonzero;stroke:none"
               id="path37773"
               inkscape:connector-curvature="0" />
          </g>
        </g>
      </g>
      <g
         id="g37775">
        <g
           id="g37777"
           clip-path="url(#clipPath37779)">
          <g
             id="g37783"
             transform="translate(150.8052,553.936)">
            <path
               d="m 0,0 c -0.061,0 -0.124,0 -0.183,0.004 l 0.065,0 0.006,0 L 0,0"
               style="fill:#303539;fill-opacity:1;fill-rule:nonzero;stroke:none"
               id="path37785"
               inkscape:connector-curvature="0" />
          </g>
          <g
             id="g37787"
             transform="translate(150.8052,553.936)">
            <path
               d="m 0,0 -0.112,0.004 c 0.173,0 0.341,0.014 0.511,0.038 0.135,0.02 0.268,0.036 0.399,0.049 C 0.538,0.03 0.269,0 0,0"
               style="fill:#2e397d;fill-opacity:1;fill-rule:nonzero;stroke:none"
               id="path37789"
               inkscape:connector-curvature="0" />
          </g>
          <g
             id="g37791"
             transform="translate(158.0073,559.7764)">
            <path
               d="M 0,0 0,0 C 0.311,0.569 0.58,1.164 0.808,1.779 0.58,1.164 0.311,0.569 0,0 M 0.808,1.785 C 0.812,1.793 0.814,1.805 0.817,1.811 0.814,1.805 0.812,1.793 0.808,1.785 M 0.824,1.827 C 0.828,1.831 0.828,1.84 0.83,1.846 0.828,1.84 0.828,1.831 0.824,1.827 M 0.84,1.864 C 0.84,1.87 0.842,1.876 0.842,1.882 0.842,1.876 0.84,1.87 0.84,1.864 m 0.014,0.044 c 0,0.004 0,0.004 0,0.004 0,0 0,0 0,-0.004 M 1.037,2.461 C 1.041,2.473 1.045,2.485 1.051,2.503 1.045,2.485 1.041,2.473 1.037,2.461 M 1.051,2.505 C 1.056,2.521 1.059,2.533 1.062,2.542 1.059,2.533 1.056,2.521 1.051,2.505 M 1.063,2.546 C 1.327,3.417 1.505,4.31 1.592,5.208 1.505,4.31 1.327,3.417 1.063,2.546 m -6.686,1.803 0,0 m 0.008,0.014 0.002,0.006 -0.002,-0.006 m 0.004,0.014 c 0,0.004 0.004,0.01 0.004,0.01 0,0 -0.004,-0.006 -0.004,-0.01 m 0.007,0.021 c 0.001,0 0.001,0.007 0.001,0.009 0,-0.002 0,-0.009 -0.001,-0.009 M -5.6,4.417 -5.596,4.424 -5.6,4.417 m 0.007,0.018 C -5.591,4.437 -5.591,4.44 -5.588,4.446 -5.591,4.44 -5.591,4.437 -5.593,4.435 m 0.008,0.019 c 0.001,0.004 0.001,0.006 0.001,0.01 0,-0.004 0,-0.006 -0.001,-0.01 m 0.003,0.018 c 0.004,0.004 0.004,0.01 0.004,0.012 0,-0.002 0,-0.008 -0.004,-0.012 m 0.008,0.016 C -5.572,4.5 -5.572,4.506 -5.568,4.512 -5.572,4.506 -5.572,4.5 -5.574,4.488 m 1.194,9.995 c 0.444,0.204 0.926,0.307 1.409,0.313 l 0.057,0 c 0.33,-0.006 0.664,-0.053 0.989,-0.152 -0.018,0.005 -0.036,0.005 -0.054,0.013 -0.317,0.092 -0.642,0.137 -0.966,0.137 -0.494,0 -0.982,-0.103 -1.435,-0.311"
               style="fill:#303539;fill-opacity:1;fill-rule:nonzero;stroke:none"
               id="path37793"
               inkscape:connector-curvature="0" />
          </g>
          <g
             id="g37795"
             transform="translate(158.0073,559.7764)">
            <path
               d="m 0,0 c -0.773,0.345 -1.578,0.617 -2.41,0.819 -1.08,0.254 -2.172,0.383 -3.278,0.383 -0.714,0 -1.433,-0.054 -2.156,-0.163 -0.177,-0.025 -0.357,-0.067 -0.527,-0.122 1.29,0.765 2.254,1.962 2.748,3.428 l 0,0.004 c 0.004,0.002 0.004,0.008 0.008,0.012 0.002,0.002 0.002,0.008 0.002,0.008 0,0.004 0.002,0.006 0.002,0.008 0.004,0.004 0.004,0.01 0.004,0.01 0.002,0.006 0.002,0.006 0.003,0.011 0.001,0 0.001,0.007 0.001,0.009 0.003,0.004 0.003,0.004 0.003,0.01 l 0.004,0.007 c 0.002,0.004 0.002,0.006 0.003,0.011 0.002,0.002 0.002,0.005 0.005,0.011 0,0.002 0.003,0.006 0.003,0.006 0.001,0.006 0.001,0.008 0.001,0.012 0.002,0.002 0.002,0.006 0.002,0.008 0.004,0.004 0.004,0.01 0.008,0.012 l 0,0.004 c 0.002,0.012 0.006,0.018 0.006,0.024 0.209,0.666 0.31,1.358 0.31,2.052 -0.003,1.095 -0.263,2.195 -0.776,3.223 -0.036,0.077 -0.075,0.152 -0.103,0.234 -0.316,0.761 -0.35,1.614 -0.09,2.407 0.289,0.869 0.911,1.589 1.732,2.003 0.04,0.016 0.076,0.034 0.115,0.052 0.453,0.208 0.944,0.311 1.435,0.311 0.324,0 0.649,-0.045 0.966,-0.139 -0.287,0.079 -0.584,0.121 -0.885,0.123 l -0.023,0 c -0.909,0 -1.783,-0.359 -2.432,-0.997 C -5.973,13.136 -6.34,12.256 -6.344,11.339 -6.35,10.425 -5.991,9.545 -5.347,8.888 -4.063,7.589 -2.553,6.59 -0.859,5.918 -0.064,5.604 0.756,5.368 1.592,5.208 1.505,4.304 1.327,3.417 1.063,2.546 1.063,2.542 1.062,2.542 1.062,2.542 1.062,2.533 1.056,2.517 1.051,2.505 l 0,-0.002 C 1.045,2.485 1.041,2.473 1.037,2.461 0.98,2.275 0.92,2.094 0.854,1.912 c 0,0 0,0 0,-0.004 C 0.85,1.9 0.848,1.888 0.842,1.882 0.842,1.876 0.84,1.87 0.84,1.864 0.836,1.86 0.832,1.853 0.83,1.846 0.83,1.84 0.828,1.831 0.824,1.823 0.82,1.823 0.82,1.816 0.817,1.811 0.814,1.805 0.812,1.793 0.808,1.785 l 0,-0.006 C 0.58,1.164 0.311,0.569 0,0"
               style="fill:#2e397d;fill-opacity:1;fill-rule:nonzero;stroke:none"
               id="path37797"
               inkscape:connector-curvature="0" />
          </g>
          <g
             id="g37799"
             transform="translate(159.5991,564.9844)">
            <path
               d="M 0,0 -0.003,0 0,0 M -3.469,9.417 C -3.487,9.423 -3.504,9.429 -3.52,9.436 -3.537,9.441 -3.556,9.443 -3.57,9.449 -3.553,9.443 -3.535,9.441 -3.517,9.436 -3.499,9.429 -3.482,9.423 -3.469,9.417"
               style="fill:#2e292c;fill-opacity:1;fill-rule:nonzero;stroke:none"
               id="path37801"
               inkscape:connector-curvature="0" />
          </g>
          <g
             id="g37803"
             transform="translate(159.5991,564.9844)">
            <path
               d="m 0,0 c -0.836,0.16 -1.656,0.396 -2.451,0.71 -1.694,0.672 -3.203,1.671 -4.487,2.97 -0.645,0.657 -1.003,1.537 -0.998,2.451 0.004,0.921 0.372,1.797 1.025,2.442 0.649,0.638 1.523,0.997 2.432,0.997 l 0.023,0 c 0.301,-0.002 0.599,-0.042 0.886,-0.121 0.017,-0.006 0.035,-0.008 0.05,-0.013 0.016,-0.007 0.034,-0.013 0.051,-0.019 0.004,0 0.016,-0.003 0.023,-0.005 C -2.578,9.122 -1.855,8.501 -1.444,7.68 -0.617,6.028 -0.125,4.27 0.02,2.445 0.086,1.628 0.08,0.809 0,0"
               style="fill:#2d2a32;fill-opacity:1;fill-rule:nonzero;stroke:none"
               id="path37805"
               inkscape:connector-curvature="0" />
          </g>
        </g>
      </g>
      <g
         id="g37807">
        <g
           id="g37809"
           clip-path="url(#clipPath37811)">
          <g
             id="g37815"
             transform="translate(162.4321,545.6509)">
            <path
               d="M 0,0 C 0.167,0 0.337,0.012 0.505,0.038 L 0.603,0.056 C 0.628,0.062 0.653,0.065 0.677,0.071 0.622,0.056 0.563,0.047 0.505,0.038 0.337,0.012 0.167,0 0,0 m -0.028,0 c -0.729,0.002 -1.444,0.236 -2.035,0.67 -0.741,0.543 -1.233,1.359 -1.372,2.269 -0.254,1.689 -1.189,3.185 -2.631,4.2 1.442,-1.015 2.377,-2.509 2.631,-4.2 C -3.296,2.029 -2.804,1.213 -2.063,0.67 -1.472,0.236 -0.757,0.002 -0.028,0 m -0.016,11.03 c -0.609,0.646 -1.289,1.238 -2.031,1.761 0.742,-0.523 1.422,-1.115 2.031,-1.761 m -2.164,1.852 0,0 m -0.029,0.024 c -0.002,0 -0.004,0.002 -0.006,0.002 0.002,0 0.004,-0.002 0.006,-0.002 m -0.031,0.018 c -0.003,0.006 -0.008,0.006 -0.011,0.012 0.003,-0.006 0.008,-0.006 0.011,-0.012 m -0.03,0.02 c -0.006,0.006 -0.012,0.01 -0.017,0.015 0.005,-0.005 0.011,-0.009 0.017,-0.015 m -0.03,0.021 c -0.007,0.006 -0.015,0.011 -0.026,0.016 0.011,-0.005 0.019,-0.01 0.026,-0.016 m -0.03,0.02 c -0.657,0.441 -1.348,0.821 -2.067,1.14 l 0,0.002 c 0.719,-0.321 1.41,-0.701 2.067,-1.142"
               style="fill:#e7232b;fill-opacity:1;fill-rule:nonzero;stroke:none"
               id="path37817"
               inkscape:connector-curvature="0" />
          </g>
          <g
             id="g37819"
             transform="translate(162.4321,545.6509)">
            <path
               d="m 0,0 -0.028,0 c -0.729,0.002 -1.444,0.236 -2.035,0.67 -0.741,0.543 -1.233,1.359 -1.372,2.269 -0.254,1.691 -1.189,3.185 -2.631,4.2 -1.18,0.837 -2.585,1.273 -4.046,1.273 -0.235,0 -0.476,-0.012 -0.717,-0.036 0.258,0.062 0.51,0.151 0.754,0.276 1.631,0.821 3.053,1.946 4.215,3.349 0.547,0.665 1.029,1.375 1.435,2.124 0.719,-0.319 1.41,-0.699 2.067,-1.14 0,-0.004 0.002,-0.004 0.002,-0.004 0.013,-0.005 0.021,-0.01 0.028,-0.016 0.006,0 0.007,-0.006 0.013,-0.006 0.005,-0.005 0.011,-0.009 0.017,-0.015 0.008,-0.002 0.012,-0.006 0.019,-0.008 0.003,-0.006 0.008,-0.006 0.011,-0.012 0.009,-0.006 0.016,-0.006 0.025,-0.016 0.002,0 0.004,-0.002 0.006,-0.002 0.008,-0.006 0.019,-0.016 0.029,-0.024 0.045,-0.029 0.088,-0.059 0.133,-0.091 0.742,-0.523 1.422,-1.115 2.031,-1.761 C -0.556,10.441 -1.021,9.811 -1.436,9.136 -2.389,7.578 -3.024,5.86 -3.323,4.038 -3.472,3.133 -3.257,2.205 -2.726,1.461 c 0.538,-0.747 1.348,-1.245 2.25,-1.399 0.188,-0.026 0.377,-0.044 0.563,-0.044 0.174,0 0.348,0.012 0.516,0.038 L 0.505,0.038 C 0.337,0.012 0.167,0 0,0"
               style="fill:#ed147c;fill-opacity:1;fill-rule:nonzero;stroke:none"
               id="path37821"
               inkscape:connector-curvature="0" />
          </g>
          <g
             id="g37823"
             transform="translate(150.6226,553.9404)">
            <path
               d="m 0,0 c -0.713,0.014 -1.406,0.244 -1.988,0.67 -0.74,0.545 -1.229,1.358 -1.369,2.268 -0.025,0.169 -0.039,0.34 -0.039,0.508 0,-0.168 0.014,-0.339 0.039,-0.508 0.14,-0.91 0.629,-1.723 1.369,-2.268 C -1.406,0.244 -0.713,0.014 0,0 m -2.711,5.522 c 0,0.005 0.004,0.005 0.004,0.005 0,0 -0.004,0 -0.004,-0.005 m 0.01,0.015 c 0,0.004 0.004,0.005 0.004,0.005 0,0 -0.004,-10e-4 -0.004,-0.005 m 0.013,0.018 c 0,0.004 0.002,0.006 0.004,0.006 -0.002,0 -0.004,-0.006 -0.004,-0.006 m 0.017,0.017 0.003,0.006 -0.003,-0.006 m 0.013,0.018 c 0,0.004 0.002,0.006 0.002,0.006 0,0 -0.002,-0.002 -0.002,-0.006 m 0.012,0.016 c 0,0.002 0.003,0.002 0.005,0.008 C -2.643,5.608 -2.646,5.608 -2.646,5.606 m 0.013,0.014 c 0,0.004 0,0.006 0.004,0.006 -0.004,0 -0.004,-0.002 -0.004,-0.006 m 0.008,0.016 c 0.006,0.006 0.008,0.011 0.013,0.013 C -2.617,5.647 -2.619,5.642 -2.625,5.636 m 0.019,0.02 c 0.002,0.006 0.005,0.006 0.007,0.011 C -2.601,5.662 -2.604,5.662 -2.606,5.656 m 0.01,0.011 c 0.006,0.006 0.009,0.012 0.012,0.012 -0.003,0 -0.006,-0.006 -0.012,-0.012 m 0.012,0.015 c 0.421,0.499 0.973,0.872 1.591,1.066 l -0.003,0 C -1.613,6.55 -2.166,6.181 -2.584,5.682"
               style="fill:#e7232b;fill-opacity:1;fill-rule:nonzero;stroke:none"
               id="path37825"
               inkscape:connector-curvature="0" />
          </g>
          <g
             id="g37827"
             transform="translate(150.6226,553.9404)">
            <path
               d="m 0,0 c -0.713,0.014 -1.406,0.244 -1.988,0.67 -0.74,0.545 -1.229,1.358 -1.369,2.268 -0.025,0.169 -0.039,0.34 -0.039,0.508 0,0.738 0.234,1.46 0.674,2.063 0.002,0.002 0.006,0.012 0.011,0.013 0,0.005 0.004,0.005 0.004,0.005 0.002,0.006 0.004,0.008 0.006,0.01 0,0.004 0.004,0.005 0.004,0.005 0.004,0.006 0.006,0.006 0.009,0.013 0,0 0.002,0.006 0.004,0.006 0.005,0.003 0.01,0.011 0.013,0.011 l 0.003,0.006 c 0.001,0.004 0.006,0.006 0.01,0.012 0,0.004 0.002,0.006 0.002,0.006 0.006,0 0.006,0.006 0.01,0.01 0,0.002 0.003,0.002 0.005,0.008 0,0.004 0.004,0.004 0.008,0.006 0,0.004 0,0.006 0.004,0.006 0,0.006 0.002,0.006 0.004,0.01 0.006,0.006 0.008,0.011 0.013,0.013 0.003,0.005 0.003,0.007 0.006,0.007 0.002,0.006 0.005,0.006 0.007,0.011 l 0.003,0 c 0.006,0.006 0.009,0.012 0.012,0.012 l 0,0.003 c 0.418,0.499 0.971,0.868 1.588,1.066 l 0.003,0 C -0.99,6.752 -0.989,6.752 -0.986,6.754 -1.11,6.677 -1.237,6.607 -1.368,6.544 -2.188,6.134 -2.81,5.414 -3.1,4.543 -3.217,4.19 -3.273,3.831 -3.275,3.466 l 0,-0.029 C -3.273,2.909 -3.15,2.383 -2.908,1.901 -2.496,1.083 -1.777,0.456 -0.904,0.17 -0.61,0.073 -0.309,0.014 0,0"
               style="fill:#ed147c;fill-opacity:1;fill-rule:nonzero;stroke:none"
               id="path37829"
               inkscape:connector-curvature="0" />
          </g>
          <g
             id="g37831"
             transform="translate(150.687,553.936)">
            <path
               d="M 0,0 -0.064,0 0,0 0.002,0 0.006,0 0,0 m 7.32,5.84 z"
               style="fill:#323037;fill-opacity:1;fill-rule:nonzero;stroke:none"
               id="path37833"
               inkscape:connector-curvature="0" />
          </g>
          <g
             id="g37835"
             transform="translate(150.687,553.936)">
            <path
               d="M 0,0 -0.064,0 C -0.373,0.018 -0.675,0.078 -0.969,0.175 -1.842,0.46 -2.561,1.087 -2.973,1.902 -3.215,2.388 -3.338,2.914 -3.34,3.441 l 0,0.028 c 0.002,0.366 0.059,0.725 0.176,1.074 0.29,0.875 0.912,1.593 1.731,2.003 0.131,0.066 0.258,0.135 0.382,0.211 0.17,0.055 0.35,0.097 0.528,0.122 0.722,0.11 1.441,0.163 2.156,0.163 C 2.736,7.042 3.83,6.914 4.906,6.66 5.742,6.457 6.545,6.186 7.32,5.84 6.912,5.087 6.431,4.379 5.885,3.716 4.723,2.313 3.301,1.184 1.667,0.367 1.426,0.242 1.174,0.153 0.916,0.089 0.781,0.078 0.65,0.06 0.515,0.042 0.348,0.014 0.179,0 0.006,0 L 0.002,0 0,0"
               style="fill:#30326b;fill-opacity:1;fill-rule:nonzero;stroke:none"
               id="path37837"
               inkscape:connector-curvature="0" />
          </g>
        </g>
      </g>
      <g
         id="g37839">
        <g
           id="g37841"
           clip-path="url(#clipPath37843)">
          <g
             id="g37847"
             transform="translate(175.4272,554.5591)">
            <path
               d="M 0,0 C 0.006,0.004 0.014,0.01 0.02,0.01 0.676,0.27 1.232,0.718 1.621,1.297 1.228,0.712 0.66,0.258 0,0 m 1.623,1.301 c 0.002,0.002 0.006,0.008 0.006,0.012 0,-0.004 -0.004,-0.01 -0.006,-0.012 m 0.012,0.018 c 0,0.002 0.004,0.008 0.006,0.014 C 1.639,1.327 1.635,1.321 1.635,1.319 m 0.011,0.014 c 0,0.005 0.003,0.009 0.007,0.011 C 1.649,1.342 1.646,1.338 1.646,1.333 m 0.01,0.023 c 0.003,0 0.006,0 0.008,0.006 C 1.662,1.356 1.659,1.356 1.656,1.356 m 0.015,0.018 c 0,0 0.003,0 0.003,0.002 0,-0.002 -0.003,-0.002 -0.003,-0.002 m 0.011,0.018 c 0,0 0,0.002 0.004,0.006 C 1.682,1.394 1.682,1.392 1.682,1.392 m 0.055,0.095 0,0 m 0.015,0.018 0,0.002 0,-0.002 m 0.008,0.016 0,0 m 0.01,0.018 c 0,0.003 0,0.003 10e-4,0.003 -10e-4,0 -10e-4,0 -10e-4,-0.003 m 0.01,0.018 c 0,0.004 0,0.004 0.002,0.004 -0.002,0 -0.002,0 -0.002,-0.004 m 0.011,0.022 0,0.002 0,-0.002 m 0.01,0.017 c 0,0.002 0.003,0.002 0.003,0.002 0,0 -0.003,0 -0.003,-0.002 m 0.01,0.02 0,0 m 0.4,1.618 C 2.205,3.563 2.16,3.895 2.065,4.212 2.16,3.895 2.205,3.563 2.211,3.234 M -8.523,5.519 C -8.951,6.249 -9.311,7.01 -9.598,7.813 -9.311,7.01 -8.951,6.249 -8.523,5.521 l 0,-0.002 M 0.785,6.021 C 0.645,6.124 0.495,6.219 0.34,6.296 -0.809,6.893 -1.754,7.754 -2.422,8.795 -1.754,7.754 -0.809,6.893 0.34,6.296 0.495,6.219 0.645,6.124 0.785,6.021 M -9.604,7.825 c -0.003,0.006 -0.005,0.012 -0.007,0.018 0.002,-0.006 0.004,-0.012 0.007,-0.018 m -0.017,0.048 0,0.004 0,-0.004 m -0.182,0.549 -0.002,0.006 0.002,-0.006 m -0.013,0.036 c 0,0.006 0,0.018 -0.005,0.023 0.005,-0.005 0.005,-0.017 0.005,-0.023 M -9.823,8.49 c -0.206,0.677 -0.359,1.356 -0.456,2.048 0.099,-0.686 0.25,-1.371 0.456,-2.048 m 1.3,10.555 c 0.398,0.484 0.929,0.848 1.53,1.054 -0.597,-0.206 -1.126,-0.57 -1.525,-1.048 -0.002,0 -0.005,-0.006 -0.005,-0.006 m 1.53,1.054 c 0.011,0.004 0.02,0.005 0.03,0.009 -0.01,-0.004 -0.019,-0.005 -0.03,-0.009 m 0.032,0.011 c 0,0 0.006,0.005 0.008,0.005 -0.002,0 -0.006,-0.005 -0.006,-0.005 m 0.017,0.007 c 0,0 0.003,0.004 0.006,0.004 -0.003,0 -0.005,-0.004 -0.005,-0.004 m 0.023,0.009 c 0.014,0.002 0.027,0.006 0.039,0.012 -0.012,-0.006 -0.025,-0.01 -0.039,-0.012"
               style="fill:#435d40;fill-opacity:1;fill-rule:nonzero;stroke:none"
               id="path37849"
               inkscape:connector-curvature="0" />
          </g>
          <g
             id="g37851"
             transform="translate(175.4468,554.5708)">
            <path
               d="m 0,0 c 0.21,0.091 0.408,0.208 0.599,0.343 0.743,0.535 1.245,1.345 1.393,2.249 0.033,0.177 0.046,0.357 0.046,0.537 l 0,0.048 C 2.031,3.885 1.811,4.583 1.393,5.168 0.857,5.914 0.051,6.417 -0.855,6.568 -1.559,6.683 -2.262,6.739 -2.965,6.743 l -0.064,0 C -4.107,6.739 -5.176,6.604 -6.235,6.33 -7.031,6.128 -7.8,5.852 -8.543,5.509 -8.971,6.237 -9.33,7.004 -9.617,7.802 -9.619,7.806 -9.621,7.808 -9.623,7.813 -9.627,7.819 -9.629,7.825 -9.631,7.835 -9.635,7.843 -9.637,7.853 -9.641,7.861 l 0,0.006 c -0.021,0.061 -0.045,0.125 -0.066,0.188 -0.041,0.119 -0.079,0.238 -0.115,0.356 0,0.004 -0.002,0.006 -0.002,0.009 -0.004,0.008 -0.006,0.018 -0.012,0.026 0,0.006 0,0.018 -0.005,0.024 -0.002,0.006 -0.002,0.006 -0.002,0.008 -0.206,0.678 -0.356,1.362 -0.456,2.05 0.763,0.175 1.512,0.411 2.242,0.716 1.689,0.7 3.209,1.714 4.523,3.012 0.654,0.645 1.024,1.522 1.029,2.438 l 0,0.041 c -0.005,0.905 -0.363,1.769 -0.997,2.41 -0.644,0.656 -1.523,1.023 -2.439,1.029 l -0.023,0 c -0.908,0 -1.782,-0.359 -2.429,-0.999 -0.053,-0.05 -0.107,-0.099 -0.16,-0.153 0.003,0.006 0.006,0.008 0.01,0.012 0,0.002 0.004,0.006 0.006,0.006 0.398,0.48 0.928,0.845 1.524,1.051 0.011,0.002 0.021,0.006 0.031,0.008 l 0.002,0 c 0.001,0.004 0.005,0.004 0.007,0.004 0.002,0 0.008,0.002 0.011,0.002 10e-4,0.004 0.003,0.004 0.007,0.004 0.008,0 0.011,0.006 0.017,0.006 0.014,0.002 0.028,0.006 0.038,0.011 0.331,0.1 0.673,0.151 1.011,0.151 0.55,0 1.094,-0.131 1.588,-0.386 0.815,-0.423 1.43,-1.151 1.709,-2.025 0.276,-0.871 0.197,-1.823 -0.225,-2.638 C -3.604,13.709 -3.728,11.95 -3.16,10.285 -2.98,9.751 -2.738,9.249 -2.441,8.785 -1.773,7.742 -0.828,6.881 0.32,6.287 0.475,6.207 0.623,6.112 0.766,6.013 1.357,5.581 1.801,4.966 2.026,4.264 2.031,4.246 2.038,4.222 2.046,4.204 2.139,3.883 2.186,3.554 2.186,3.223 l 0,-0.018 C 2.186,2.662 2.057,2.118 1.805,1.626 1.799,1.62 1.793,1.61 1.791,1.608 l 0,-0.004 C 1.789,1.598 1.786,1.592 1.784,1.59 1.784,1.586 1.781,1.586 1.781,1.586 1.777,1.581 1.774,1.575 1.771,1.569 l 0,-0.002 C 1.766,1.563 1.766,1.557 1.761,1.551 l 0,-0.002 C 1.754,1.543 1.754,1.539 1.752,1.531 l -0.002,0 C 1.748,1.525 1.744,1.519 1.74,1.513 l 0,-0.004 C 1.738,1.503 1.734,1.5 1.732,1.5 l 0,-0.005 C 1.727,1.487 1.727,1.481 1.718,1.476 1.7,1.446 1.682,1.416 1.666,1.386 1.662,1.386 1.662,1.382 1.662,1.38 1.659,1.376 1.656,1.375 1.654,1.368 1.654,1.364 1.651,1.362 1.651,1.362 1.648,1.356 1.645,1.354 1.645,1.351 1.643,1.351 1.64,1.345 1.637,1.345 1.634,1.338 1.634,1.338 1.634,1.333 1.63,1.333 1.627,1.327 1.627,1.325 1.627,1.321 1.621,1.321 1.621,1.321 1.619,1.315 1.615,1.309 1.613,1.307 L 1.609,1.303 C 1.609,1.297 1.605,1.291 1.604,1.291 L 1.602,1.289 C 1.213,0.706 0.656,0.258 0,0"
               style="fill:#3972c1;fill-opacity:1;fill-rule:nonzero;stroke:none"
               id="path37853"
               inkscape:connector-curvature="0" />
          </g>
          <g
             id="g37855"
             transform="translate(165.1479,565.0991)">
            <path
               d="M 0,0 Z"
               style="fill:#44282d;fill-opacity:1;fill-rule:nonzero;stroke:none"
               id="path37857"
               inkscape:connector-curvature="0" />
          </g>
          <g
             id="g37859"
             transform="translate(165.1479,565.0991)">
            <path
               d="m 0,0 0,0 -0.002,0 c -0.085,0.607 -0.124,1.214 -0.124,1.829 l 0,0.011 c 0,0.284 0.007,0.568 0.026,0.851 0.114,1.821 0.598,3.564 1.439,5.188 0.112,0.222 0.247,0.424 0.407,0.615 0.053,0.053 0.107,0.103 0.16,0.152 0.647,0.641 1.521,1 2.429,1 l 0.022,0 C 5.273,9.64 6.152,9.269 6.797,8.617 7.431,7.974 7.789,7.111 7.791,6.207 l 0,-0.041 C 7.789,5.25 7.419,4.373 6.765,3.726 5.449,2.429 3.931,1.416 2.242,0.716 1.512,0.411 0.761,0.174 0,0"
               style="fill:#452833;fill-opacity:1;fill-rule:nonzero;stroke:none"
               id="path37861"
               inkscape:connector-curvature="0" />
          </g>
        </g>
      </g>
      <g
         id="g37863">
        <g
           id="g37865"
           clip-path="url(#clipPath37867)">
          <g
             id="g37871"
             transform="translate(163.1089,545.7183)">
            <path
               d="M 0,0 C 0.029,0.006 0.057,0.012 0.085,0.018 0.564,0.115 1.021,0.307 1.424,0.597 2.169,1.132 2.676,1.941 2.82,2.844 3.128,4.69 4.094,6.304 5.545,7.391 5.584,7.415 5.621,7.445 5.659,7.474 5.621,7.445 5.584,7.415 5.545,7.391 4.094,6.304 3.128,4.69 2.82,2.844 2.676,1.941 2.169,1.132 1.424,0.597 0.996,0.29 0.51,0.089 0,0 m 10.922,8.545 c -0.038,0 -0.072,0 -0.108,0.004 0.036,-0.004 0.07,-0.004 0.104,-0.004 0.48,0 0.957,0.101 1.394,0.294 0,0.002 0.003,0.002 0.006,0.002 C 11.879,8.646 11.401,8.545 10.922,8.545 m -0.121,0.004 -0.004,0 0.004,0 M 10.359,8.591 C 10.342,8.597 10.33,8.597 10.32,8.603 10.33,8.597 10.342,8.597 10.359,8.591 M 10.281,8.604 C 9.972,8.652 9.657,8.676 9.35,8.676 c 0.307,0 0.622,-0.024 0.931,-0.072 m -0.944,0.072 0.01,0 -0.01,0 m -10.058,2.286 0,0 c 0.558,0.635 1.17,1.22 1.84,1.746 -0.67,-0.526 -1.282,-1.111 -1.84,-1.746 m 1.84,1.746 c 0.012,0.01 0.019,0.018 0.033,0.027 C 1.138,12.726 1.131,12.718 1.119,12.708 m 0.045,0.036 C 1.17,12.75 1.177,12.755 1.183,12.761 1.177,12.755 1.17,12.75 1.164,12.744 m 0.033,0.029 c 0.007,0.002 0.016,0.008 0.022,0.014 C 1.213,12.781 1.204,12.775 1.197,12.773 m 0.037,0.026 C 1.24,12.803 1.243,12.809 1.25,12.815 1.243,12.809 1.24,12.803 1.234,12.799 m 0.036,0.028 c 0.005,0.006 0.009,0.007 0.015,0.011 C 1.279,12.834 1.275,12.833 1.27,12.827 m 0.033,0.026 c 0.009,0.003 0.011,0.009 0.018,0.015 C 1.314,12.862 1.312,12.856 1.303,12.853 M 1.34,12.88 c 0.006,0.002 0.01,0.008 0.017,0.012 C 1.35,12.888 1.346,12.882 1.34,12.88 m 0.029,0.024 c 0.015,0.01 0.027,0.016 0.037,0.026 -0.01,-0.01 -0.022,-0.016 -0.037,-0.026 m 0.037,0.026 c 0.753,0.563 1.553,1.043 2.389,1.432 l 0,-0.002 C 2.959,13.969 2.159,13.493 1.406,12.93"
               style="fill:#eb641b;fill-opacity:1;fill-rule:nonzero;stroke:none"
               id="path37873"
               inkscape:connector-curvature="0" />
          </g>
          <g
             id="g37875"
             transform="translate(163.1938,545.7363)">
            <path
               d="M 0,0 C 0.802,0.186 1.517,0.652 2.008,1.316 2.552,2.062 2.778,2.982 2.645,3.893 2.364,5.695 1.731,7.396 0.757,8.936 0.3,9.653 -0.22,10.328 -0.806,10.94 c 0.558,0.639 1.17,1.224 1.84,1.749 0.012,0.011 0.019,0.019 0.033,0.028 0.002,0.002 0.004,0.007 0.012,0.009 0.006,0.005 0.013,0.011 0.019,0.017 0.006,0.004 0.011,0.006 0.014,0.012 0.007,0.002 0.014,0.008 0.022,0.012 0.006,0.006 0.01,0.012 0.015,0.014 0.002,0.004 0.009,0.01 0.016,0.016 0.008,0 0.012,0.006 0.02,0.012 0.003,0.005 0.009,0.005 0.015,0.011 0.006,0.007 0.012,0.013 0.018,0.013 0.009,0.005 0.011,0.011 0.018,0.017 0.006,0.003 0.01,0.006 0.019,0.012 0.006,0.002 0.01,0.008 0.017,0.012 0.004,0.006 0.01,0.008 0.012,0.012 0.015,0.01 0.028,0.016 0.037,0.026 0.753,0.563 1.553,1.039 2.389,1.43 0.41,-0.7 0.887,-1.369 1.422,-1.995 1.187,-1.389 2.62,-2.523 4.26,-3.368 0.495,-0.259 1.043,-0.388 1.589,-0.388 0.354,0 0.706,0.051 1.047,0.162 0.07,0.02 0.133,0.044 0.197,0.068 -0.435,-0.193 -0.912,-0.294 -1.392,-0.294 -0.034,0 -0.068,0 -0.104,0.004 l -0.013,0 -0.004,0 C 10.563,8.537 10.417,8.549 10.27,8.573 10.257,8.579 10.245,8.579 10.235,8.581 10.221,8.584 10.209,8.584 10.192,8.584 9.887,8.634 9.572,8.658 9.265,8.658 l -0.003,0 -0.01,0 C 7.952,8.654 6.675,8.242 5.574,7.456 5.536,7.427 5.499,7.396 5.46,7.373 4.007,6.286 3.04,4.672 2.735,2.826 2.591,1.923 2.084,1.114 1.339,0.579 0.937,0.289 0.478,0.095 0,0"
               style="fill:#f58615;fill-opacity:1;fill-rule:nonzero;stroke:none"
               id="path37877"
               inkscape:connector-curvature="0" />
          </g>
          <g
             id="g37879"
             transform="translate(163.0347,545.7065)">
            <path
               d="M 0,0 0.131,0.023 C 0.139,0.025 0.152,0.03 0.159,0.03 0.135,0.023 0.104,0.018 0.074,0.012 0.049,0.006 0.025,0.004 0,0 m -0.646,10.97 0,0 0,0.004 0,-0.004"
               style="fill:#e52127;fill-opacity:1;fill-rule:nonzero;stroke:none"
               id="path37881"
               inkscape:connector-curvature="0" />
          </g>
          <g
             id="g37883"
             transform="translate(162.519,545.6689)">
            <path
               d="m 0,0 c -0.186,0 -0.375,0.014 -0.563,0.043 -0.902,0.155 -1.711,0.653 -2.25,1.398 -0.531,0.746 -0.746,1.672 -0.597,2.579 0.299,1.82 0.934,3.54 1.888,5.096 0.415,0.672 0.879,1.307 1.391,1.892 C 0.455,10.395 0.975,9.721 1.432,9.003 2.406,7.464 3.043,5.763 3.319,3.96 3.456,3.05 3.227,2.129 2.684,1.384 2.191,0.72 1.477,0.253 0.678,0.067 0.668,0.067 0.654,0.063 0.646,0.061 L 0.516,0.038 C 0.348,0.012 0.174,0 0,0"
               style="fill:#ed2325;fill-opacity:1;fill-rule:nonzero;stroke:none"
               id="path37885"
               inkscape:connector-curvature="0" />
          </g>
          <g
             id="g37887"
             transform="translate(175.4204,554.5571)">
            <path
               d="m 0,0 c 0.007,0.002 0.013,0.006 0.021,0.012 l 0.005,0 C 0.021,0.012 0.013,0.006 0.007,0.002 0.004,0.002 0.003,0.002 0,0 m -8.517,5.521 0,0 0.004,0 -0.004,0"
               style="fill:#4a4536;fill-opacity:1;fill-rule:nonzero;stroke:none"
               id="path37889"
               inkscape:connector-curvature="0" />
          </g>
          <g
             id="g37891"
             transform="translate(174.1753,554.3271)">
            <path
               d="m 0,0 c -0.549,0 -1.095,0.129 -1.59,0.389 -1.639,0.844 -3.072,1.983 -4.26,3.367 -0.537,0.626 -1.011,1.295 -1.421,1.995 l 0,0.002 c 0.74,0.343 1.511,0.619 2.305,0.821 1.058,0.274 2.13,0.408 3.208,0.408 l 0.065,0 c 0.701,0 1.406,-0.059 2.103,-0.174 C 1.318,6.661 2.127,6.157 2.664,5.412 3.082,4.827 3.303,4.128 3.31,3.42 l 0,-0.047 C 3.307,3.192 3.293,3.012 3.264,2.835 3.115,1.931 2.613,1.122 1.865,0.585 1.68,0.452 1.481,0.335 1.271,0.244 1.271,0.242 1.27,0.242 1.264,0.242 1.256,0.236 1.251,0.232 1.243,0.23 1.18,0.206 1.116,0.182 1.047,0.162 0.705,0.051 0.354,0 0,0"
               style="fill:#485138;fill-opacity:1;fill-rule:nonzero;stroke:none"
               id="path37893"
               inkscape:connector-curvature="0" />
          </g>
        </g>
      </g>
    </g>
  </g>
</svg>
