<?xml version="1.0"?>
<svg width="1900" height="800.0000000000001" xmlns="http://www.w3.org/2000/svg">
 <defs>
  <clipPath id="clipPath37667" clipPathUnits="userSpaceOnUse">
   <path id="path37669" d="m-275.59906,473.097839l105.016022,0l0,105.034973l-105.016022,0l0,-105.034973z"/>
  </clipPath>
  <clipPath id="clipPath37699" clipPathUnits="userSpaceOnUse">
   <path id="path37701" d="m-227.704041,562.246765l9.108002,0l0,10.945007l-9.108002,0l0,-10.945007z"/>
  </clipPath>
  <clipPath id="clipPath37711" clipPathUnits="userSpaceOnUse">
   <path id="path37713" d="m-245.232056,551.185791l10.824982,0l0,9.153992l-10.824982,0l0,-9.153992z"/>
  </clipPath>
  <clipPath id="clipPath37723" clipPathUnits="userSpaceOnUse">
   <path id="path37725" d="m-238.421051,530.585754l9.502991,0l0,10.362l-9.502991,0l0,-10.362z"/>
  </clipPath>
  <clipPath id="clipPath37735" clipPathUnits="userSpaceOnUse">
   <path id="path37737" d="m-217.29306,530.684753l9.714996,0l0,10.130005l-9.714996,0l0,-10.130005z"/>
  </clipPath>
  <clipPath id="clipPath37747" clipPathUnits="userSpaceOnUse">
   <path id="path37749" d="m-211.638031,551.27179l10.682007,0l0,9.226013l-10.682007,0l0,-9.226013z"/>
  </clipPath>
  <clipPath id="clipPath37763" clipPathUnits="userSpaceOnUse">
   <path id="path37765" d="m-234.00705,553.786804l21.276978,0l0,9.992004l-21.276978,0l0,-9.992004z"/>
  </clipPath>
  <clipPath id="clipPath37779" clipPathUnits="userSpaceOnUse">
   <path id="path37781" d="m-238.322052,542.96875l12.315979,0l0,20.637024l-12.315979,0l0,-20.637024z"/>
  </clipPath>
  <clipPath id="clipPath37811" clipPathUnits="userSpaceOnUse">
   <path id="path37813" d="m-238.442047,534.683777l18.645996,0l0,15.327026l-18.645996,0l0,-15.327026z"/>
  </clipPath>
  <clipPath id="clipPath37843" clipPathUnits="userSpaceOnUse">
   <path id="path37845" d="m-220.647064,543.359802l12.610016,0l0,20.520996l-12.610016,0l0,-20.520996z"/>
  </clipPath>
  <clipPath id="clipPath37867" clipPathUnits="userSpaceOnUse">
   <path id="path37869" d="m-226.608063,534.701782l18.424011,0l0,15.640015l-18.424011,0l0,-15.640015z"/>
  </clipPath>
  <clipPath id="clipPath37899" clipPathUnits="userSpaceOnUse">
   <path id="path37901" d="m-321.491425,538.590271l18.101013,0l0,27.210022l-18.101013,0l0,-27.210022z"/>
  </clipPath>
  <clipPath id="clipPath37911" clipPathUnits="userSpaceOnUse">
   <path id="path37913" d="m-302.04541,538.590271l20.559967,0l0,27.210022l-20.559967,0l0,-27.210022z"/>
  </clipPath>
  <clipPath id="clipPath37923" clipPathUnits="userSpaceOnUse">
   <path id="path37925" d="m-280.563446,549.270264l10.147034,0l0,16.530029l-10.147034,0l0,-16.530029z"/>
  </clipPath>
  <clipPath id="clipPath37935" clipPathUnits="userSpaceOnUse">
   <path id="path37937" d="m-270.119415,538.843262l19.413971,0l0,26.958008l-19.413971,0l0,-26.958008z"/>
  </clipPath>
 </defs>
 <metadata id="metadata39885">image/svg+xml</metadata>
 <g>
  <title>background</title>
  <rect fill="none" id="canvas_background" height="802" width="1902" y="-1" x="-1"/>
 </g>
 <g>
  <title>Layer 1</title>
  <g id="svg_1">
   <g transform="matrix(15.573485,0,0,-15.573485,5018.7424,8994.5949) " id="g37895">
    <g id="g37897" clip-path="url(#clipPath37899)">
     <g id="g37903">
      <path fill="#1e1f47" fill-rule="nonzero" d="m-303.391022,560.305481c0,-0.718018 -0.183014,-1.127991 -0.549011,-1.229004l-1.115967,-0.302002c-1.239014,-0.317017 -1.798004,-1.502991 -1.669037,-3.559021l0.740021,-11.333984c0.093994,-1.689941 -0.281006,-2.84198 -1.122986,-3.458008l-1.45105,-1.082947c-0.731964,-0.497986 -1.365967,-0.750061 -1.903961,-0.750061l-0.453003,0l0,13.140015c0,2.325012 0.402008,4.139038 1.210999,5.442017l0.740021,1.224976l0,0.331055l-10.287048,0c-1.493988,0 -2.24295,0.815979 -2.24295,2.45697l0,2.554993c0,0.937988 0.324951,1.52301 0.977997,1.759033l0.926971,0.296997l0.337982,-0.501038c0.394043,-0.617004 0.920044,-0.924988 1.567993,-0.924988l12.436035,0c1.237976,0 1.856995,-0.653992 1.856995,-1.958984l0,-2.106018z" id="path37905"/>
     </g>
    </g>
   </g>
   <g transform="matrix(15.573485,0,0,-15.573485,5018.7424,8994.5949) " id="g37907">
    <g id="g37909" clip-path="url(#clipPath37911)">
     <g id="g37915">
      <path fill="#1e1f47" fill-rule="nonzero" d="m-281.485718,559.679077c-0.622009,-0.886963 -0.915985,-2.063965 -0.884003,-3.536011c0,-0.098999 0.034027,-0.593018 0.098022,-1.47998l0.735962,-10.631042c0.129028,-1.754944 -0.302979,-2.991943 -1.284973,-3.711914l-1.355011,-1.029053c-0.655029,-0.466003 -1.338013,-0.700012 -2.048981,-0.700012l-0.289032,0l0,15.345032c0,1.205017 0.309998,2.440979 0.928986,3.709961l0.286041,0.603027c0.06601,0.132996 0.079987,0.252014 0.047974,0.353027c-0.030975,0.080994 -0.127014,0.126953 -0.287018,0.126953l-10.003967,0c-0.521027,0 -0.923981,-0.26001 -1.202026,-0.781006c-0.277954,-0.515991 -0.402954,-1.06897 -0.368958,-1.653931l0.783997,-12.688049c0.099976,-1.674011 -0.354004,-2.849976 -1.357025,-3.536011l-1.428986,-1.028992c-0.221985,-0.132996 -0.531006,-0.233948 -0.927002,-0.299988c-0.51001,-0.065002 -0.819977,-0.117004 -0.929016,-0.150024l-0.286987,0l0,14.36499c0,2.227051 0.680969,4.147034 2.047974,5.77301l-0.569946,0c-1.51001,0 -2.265015,0.815002 -2.265015,2.457031l0,2.554993c0,0.937988 0.326965,1.521973 0.977966,1.757996l0.932007,0.297974l0.355042,-0.501953c0.380981,-0.616028 0.896942,-0.924011 1.547974,-0.924011l13.57901,0c2.110992,0 3.166992,-1.046997 3.166992,-3.137024l0,-1.554993z" id="path37917"/>
     </g>
    </g>
   </g>
   <g transform="matrix(15.573485,0,0,-15.573485,5018.7424,8994.5949) " id="g37919">
    <g id="g37921" clip-path="url(#clipPath37923)">
     <g id="g37927">
      <path fill="#1e1f47" fill-rule="nonzero" d="m-270.822632,562.114075c0.271027,-0.721985 0.406006,-1.797974 0.406006,-3.237976c0,-1.721008 -0.388031,-3.567993 -1.167999,-5.541016c-0.856018,-2.122009 -1.768982,-3.408997 -2.738037,-3.860962c-0.191956,-0.101013 -0.419983,-0.151062 -0.690979,-0.151062l-1.119965,-0.050964c-0.253021,0 -0.497009,0.110962 -0.726013,0.328979c-0.230988,0.216003 -0.313995,0.411987 -0.25,0.602051c1.491974,2.286987 2.238007,4.428955 2.238007,6.415955c0,1.406006 -0.386993,2.109985 -1.167999,2.109985l-2.619019,0c-0.617004,0 -1.09198,0.147034 -1.417999,0.447998c-0.324005,0.302002 -0.487976,0.936035 -0.487976,1.90802l0,2.654968c0,0.938049 0.327972,1.52301 0.977997,1.759033l0.927979,0.297974l0.334991,-0.501953c0.396027,-0.617004 0.921021,-0.924011 1.573029,-0.924011l2.61795,0c1.665039,0 2.772034,-0.754028 3.310028,-2.257019" id="path37929"/>
     </g>
    </g>
   </g>
   <g transform="matrix(15.573485,0,0,-15.573485,5018.7424,8994.5949) " id="g37931">
    <g id="g37933" clip-path="url(#clipPath37935)">
     <g id="g37939">
      <path fill="#1e1f47" fill-rule="nonzero" d="m-250.705475,543.605774l-0.595978,-3.108948c-0.127014,-0.718018 -0.369019,-1.176025 -0.726013,-1.365051c-0.357986,-0.195984 -0.876984,-0.289001 -1.559998,-0.289001l-16.531952,0l0,0.447998l0.765015,3.238037c0.169983,0.718018 0.37793,1.166016 0.615967,1.341003c0.238007,0.174011 0.715027,0.263 1.429016,0.263l9.814972,0l0,10.631958c0,2.639038 -1.222992,3.963989 -3.671997,3.963989l-5.832001,0c-1.505981,0 -2.263977,0.815002 -2.263977,2.457031l0,2.554993c0,0.937988 0.327026,1.52301 0.974976,1.758972l0.932007,0.296997l0.356995,-0.501953c0.380005,-0.616028 0.897034,-0.924011 1.548981,-0.924011l6.691071,0c3.732941,0 5.597931,-2.041992 5.597931,-6.121033l0,-11.859985c0,-1.403992 0.47699,-2.156982 1.429993,-2.256958l1.024994,-0.101074l0,-0.425964z" id="path37941"/>
     </g>
    </g>
   </g>
  </g>
  <g id="svg_2">
   <g transform="matrix(15.573485,0,0,-15.573485,5018.7424,8994.5949) " id="g37663">
    <g id="g37665" clip-path="url(#clipPath37667)">
     <g id="g37671">
      <path fill="#ffffff" fill-rule="nonzero" d="m-222.918549,562.246704c2.515015,0 4.322968,3.872986 4.322968,6.390015c0,2.515991 -2.036987,4.554993 -4.556,4.554993c-2.513977,0 -4.552002,-2.039001 -4.552002,-4.554993c0,-2.517029 2.267029,-6.390015 4.785034,-6.390015" id="path37673"/>
     </g>
     <g id="g37675">
      <path fill="#ffffff" fill-rule="nonzero" d="m-234.526978,554.026855c0.777008,2.392029 -2.342957,5.311035 -4.736969,6.088013c-2.393982,0.778992 -4.963013,-0.53302 -5.742004,-2.924988c-0.778015,-2.393005 0.533997,-4.963989 2.925995,-5.743042c2.392975,-0.773987 6.776031,0.186035 7.552979,2.580017" id="path37677"/>
     </g>
     <g id="g37679">
      <path fill="#ffffff" fill-rule="nonzero" d="m-230.295563,540.44635c-2.039001,1.479004 -5.777985,-0.586975 -7.254974,-2.624023c-1.476013,-2.037964 -1.027008,-4.885986 1.006989,-6.360962c2.037994,-1.484009 4.885986,-1.031982 6.363983,1.002991c1.479004,2.039001 1.920013,6.505005 -0.115997,7.981995" id="path37681"/>
     </g>
     <g id="g37683">
      <path fill="#ffffff" fill-rule="nonzero" d="m-216.071869,540.276001c-2.034973,-1.482971 -1.22699,-5.675964 0.255005,-7.713989c1.477997,-2.035034 4.326019,-2.483032 6.362,-1.007996c2.036011,1.481995 2.487,4.330994 1.007996,6.364014c-1.479004,2.039001 -5.587982,3.833984 -7.625,2.357971" id="path37685"/>
     </g>
     <g id="g37687">
      <path fill="#ffffff" fill-rule="nonzero" d="m-201.179352,557.348694c-0.775024,2.393982 -3.348022,3.702026 -5.738007,2.924988c-2.394989,-0.777954 -5.372986,-4.132996 -4.594025,-6.524963c0.775024,-2.393005 5.015015,-2.919006 7.408051,-2.140991c2.394989,0.778992 3.702972,3.348999 2.923981,5.740967" id="path37689"/>
     </g>
     <g id="g37691">
      <path fill="#ffffff" fill-rule="nonzero" d="m-221.153961,547.680664c-0.778992,-0.583008 -1.487976,-1.240967 -2.126984,-1.971008c-0.610016,0.650024 -1.289001,1.23999 -2.031006,1.765015c-0.742004,0.520996 -1.526001,0.966003 -2.350006,1.333984c0.425018,0.778015 0.77002,1.598999 1.037018,2.460999c0.279999,0.899048 0.464996,1.817017 0.552002,2.747009c0.815979,-0.149963 1.64798,-0.22998 2.490997,-0.22998l0.181976,0c0.975006,0.018005 1.937012,0.128967 2.882019,0.344971c0.113983,-0.834961 0.311005,-1.658997 0.588989,-2.472961c0.300995,-0.890015 0.69101,-1.741028 1.167999,-2.548035c-0.839996,-0.390015 -1.636993,-0.867004 -2.393005,-1.429993m8.950012,-4.338989c0.674988,-0.109009 1.362,-0.018005 1.976013,0.26001c0.776978,0.302979 1.421997,0.880005 1.805969,1.627991c0.423004,0.815002 0.504028,1.763 0.225006,2.638c-0.276978,0.874023 -0.893982,1.599976 -1.704987,2.020996c-1.662018,0.857971 -2.897003,2.280029 -3.480988,3.992981c-0.567017,1.671997 -0.443024,3.429016 0.342987,4.950012c0.419006,0.815002 0.503006,1.763 0.221985,2.635986c-0.274994,0.876038 -0.890991,1.604004 -1.704987,2.026001c-0.812988,0.419006 -1.76001,0.502014 -2.638,0.225037c-0.625992,-0.200989 -1.181,-0.580017 -1.597992,-1.075989c-1.309021,-1.227051 -2.984009,-1.915039 -4.731018,-1.939026l-0.09198,0c-1.726013,0 -3.324005,0.656982 -4.507996,1.856018c-0.419006,0.424988 -0.937012,0.72998 -1.502014,0.893005c-0.851013,0.259949 -1.769012,0.181946 -2.565002,-0.212036c-0.820984,-0.414978 -1.441986,-1.13501 -1.731995,-2.002991c-0.286011,-0.872986 -0.220001,-1.822998 0.194,-2.642029c0.837982,-1.670959 1.001984,-3.544983 0.464996,-5.274963c-0.480011,-1.546997 -1.472977,-2.807983 -2.812988,-3.598999c-0.688019,-0.220032 -1.294006,-0.655029 -1.725006,-1.244019c-0.544006,-0.734985 -0.774017,-1.664001 -0.634003,-2.565979c0.139008,-0.910034 0.627991,-1.725037 1.367004,-2.268982c0.597992,-0.438049 1.317993,-0.674011 2.052979,-0.674011l0.004028,0l0.113983,0c0.265991,0 0.533997,0.029968 0.791992,0.088989c1.71402,0.171021 3.393005,-0.259033 4.769012,-1.234985c1.437988,-1.015991 2.375,-2.511047 2.631012,-4.204041c0.141998,-0.906006 0.630981,-1.721985 1.369995,-2.264954c0.596985,-0.440002 1.317993,-0.674011 2.049988,-0.674011c0.174011,0 0.347992,0.015991 0.519989,0.039978l0.228027,0.04303c0.487976,0.094971 0.955994,0.289978 1.367981,0.584961c0.746002,0.536011 1.252014,1.345032 1.397003,2.247009c0.307007,1.846008 1.270996,3.460999 2.723999,4.546997c1.414001,1.051025 3.121002,1.47998 4.811005,1.200012" id="path37693"/>
     </g>
    </g>
   </g>
   <g transform="matrix(15.573485,0,0,-15.573485,5018.7424,8994.5949) " id="g37695">
    <g id="g37697" clip-path="url(#clipPath37699)">
     <g id="g37703">
      <path fill="#ec1e27" fill-rule="nonzero" d="m-222.921478,562.246704c-2.514984,0 -4.781982,3.872986 -4.781982,6.390015c0,2.502991 2.016998,4.534973 4.512024,4.554993l0.07901,0c2.485962,-0.02002 4.497955,-2.028992 4.516998,-4.518005l0,-0.080994c-0.019043,-2.515991 -1.822052,-6.346008 -4.32605,-6.346008" id="path37705"/>
     </g>
    </g>
   </g>
   <g transform="matrix(15.573485,0,0,-15.573485,5018.7424,8994.5949) " id="g37707">
    <g id="g37709" clip-path="url(#clipPath37711)">
     <g id="g37715">
      <path fill="#2957a8" fill-rule="nonzero" d="m-240.200775,551.185059c-0.686981,0 -1.334991,0.085022 -1.878967,0.265991c-1.924011,0.622009 -3.145996,2.401001 -3.152008,4.315002l0,0.032043c0,0.461975 0.076019,0.931946 0.225006,1.391968c0.626007,1.922974 2.406006,3.143005 4.321991,3.148987l0.020996,0c0.462982,0 0.935028,-0.070984 1.397003,-0.223999c2.132019,-0.691956 4.846008,-3.08197 4.859985,-5.289001l0,-0.041992c-0.003967,-0.253967 -0.039978,-0.507019 -0.119995,-0.757019c-0.60199,-1.845947 -3.35199,-2.84198 -5.674011,-2.84198" id="path37717"/>
     </g>
    </g>
   </g>
   <g transform="matrix(15.573485,0,0,-15.573485,5018.7424,8994.5949) " id="g37719">
    <g id="g37721" clip-path="url(#clipPath37723)">
     <g id="g37727">
      <path fill="#7c154d" fill-rule="nonzero" d="m-233.843353,530.586487l-0.052002,0c-0.921997,0.005981 -1.846008,0.289978 -2.64801,0.875c-1.225006,0.885986 -1.873962,2.273987 -1.877014,3.676025c-0.001953,0.93396 0.280029,1.873962 0.868011,2.684998c1.126984,1.549011 3.563995,3.119995 5.563019,3.125977l0.028992,0c0.612976,-0.002014 1.182983,-0.153015 1.664978,-0.502014c0.962036,-0.703979 1.372009,-2.073975 1.378021,-3.541992l0,-0.060974c-0.006012,-1.609009 -0.491974,-3.322021 -1.261993,-4.379028c-0.88501,-1.217957 -2.263977,-1.872009 -3.664001,-1.877991" id="path37729"/>
     </g>
    </g>
   </g>
   <g transform="matrix(15.573485,0,0,-15.573485,5018.7424,8994.5949) " id="g37731">
    <g id="g37733" clip-path="url(#clipPath37735)">
     <g id="g37739">
      <path fill="#f14625" fill-rule="nonzero" d="m-212.130463,530.685547c-1.406982,0 -2.796997,0.650024 -3.690002,1.876038c-0.840973,1.161987 -1.46698,3.021973 -1.472992,4.681946l0,0.048035c0.002991,1.234985 0.354004,2.352966 1.222015,2.984009c0.516998,0.376953 1.177002,0.539978 1.891998,0.539978c2.074005,0 4.630005,-1.380005 5.731995,-2.89801c0.589996,-0.80896 0.873993,-1.748962 0.872009,-2.682983c-0.003998,-1.406006 -0.654999,-2.788025 -1.878998,-3.679993c-0.809021,-0.585022 -1.746002,-0.869019 -2.676025,-0.869019" id="path37741"/>
     </g>
    </g>
   </g>
   <g transform="matrix(15.573485,0,0,-15.573485,5018.7424,8994.5949) " id="g37743">
    <g id="g37745" clip-path="url(#clipPath37747)">
     <g id="g37751">
      <path fill="#5c7f42" fill-rule="nonzero" d="m-206.474274,551.272095c-2.156982,0.01001 -4.484985,0.763977 -5.040985,2.47699c-0.084991,0.26001 -0.123016,0.532043 -0.127014,0.804993c0.003998,-0.272949 0.042023,-0.544983 0.127014,-0.804993c0.556,-1.713013 2.884003,-2.46698 5.040985,-2.47699m5.007019,2.574036c0.329987,0.636963 0.509003,1.346985 0.511993,2.077942l0,-0.010986c-0.006012,-0.726013 -0.184998,-1.435974 -0.511993,-2.066956m-10.175018,0.743958l0,0c0.012024,2.275024 2.598999,4.994995 4.721008,5.683044c0.463013,0.152954 0.936005,0.224976 1.399994,0.224976c-0.463989,0 -0.936981,-0.072021 -1.399994,-0.224976c-2.122009,-0.688049 -4.708984,-3.40802 -4.721008,-5.683044m10.687012,1.36499c-0.001007,0.462036 -0.075989,0.933044 -0.226013,1.394043c0.147003,-0.460999 0.223022,-0.925049 0.226013,-1.382996l0,-0.011047m-0.226013,1.394043c-0.34198,1.053955 -1.03299,1.896973 -1.898987,2.442993c0.865997,-0.546021 1.557007,-1.389038 1.898987,-2.442993" id="path37753"/>
     </g>
     <g id="g37755">
      <path fill="#51ace4" fill-rule="nonzero" d="m-206.413666,551.272095l-0.061005,0c-2.156982,0.01001 -4.482971,0.763977 -5.036987,2.47699c-0.088989,0.26001 -0.126984,0.532043 -0.126984,0.804993l0,0.036011c0.007996,2.275024 2.596985,4.994995 4.720978,5.683044c0.462006,0.152954 0.933014,0.224976 1.397003,0.224976l0.020996,0c0.865997,0 1.705017,-0.254028 2.421997,-0.705994c0.867004,-0.546021 1.557007,-1.389038 1.89801,-2.442993c0.148987,-0.460999 0.223999,-0.932007 0.223999,-1.394043l0,-0.031006c-0.001007,-0.730957 -0.182007,-1.440979 -0.507996,-2.077942c-0.53299,-1.025024 -1.45401,-1.852051 -2.639008,-2.239014c-0.665985,-0.216003 -1.472992,-0.330994 -2.311005,-0.335022" id="path37757"/>
     </g>
    </g>
   </g>
   <g transform="matrix(15.573485,0,0,-15.573485,5018.7424,8994.5949) " id="g37759">
    <g id="g37761" clip-path="url(#clipPath37763)">
     <g id="g37767">
      <path fill="#b91f25" fill-rule="nonzero" d="m-223.581665,553.786682l0.182007,0.005981l0.044006,0l-0.044006,0l-0.182007,-0.005981m-0.040985,0l-0.011993,0l0.011993,0m-0.039001,0l-0.028992,0l0.028992,0m-0.041016,0c-0.798981,0.012024 -1.590973,0.085022 -2.366974,0.22998c0.776001,-0.144958 1.567993,-0.217957 2.366974,-0.22998m0.382019,0.005981l0.005981,0l-0.005981,0m0.040009,0l0.005981,0l-0.005981,0m0.043976,0l0.006012,0l-0.006012,0m0.042023,0l0.003998,0.002014l-0.003998,-0.002014m0.040985,0.002014l0.003998,0l-0.003998,0m0.243011,0.01001l0.005981,0l-0.005981,0m0.03598,0.002014l0.016022,0l-0.016022,0m0.037018,0.003967l0.023987,0l-0.023987,0m0.039978,0c0.011017,0 0.021042,0 0.032013,0.002014c-0.010971,-0.002014 -0.020996,-0.002014 -0.032013,-0.002014m0.040009,0.002014c0.015991,0.004028 0.026001,0.004028 0.041016,0.004028c-0.015015,0 -0.025024,0 -0.041016,-0.004028m0.044006,0.004028c0.739014,0.047974 1.471008,0.151001 2.19101,0.315002c-0.720001,-0.164001 -1.451996,-0.267029 -2.19101,-0.315002m-0.868011,6.886963c-1.53598,0 -2.972992,0.523987 -4.105988,1.483032c1.132996,-0.959045 2.570007,-1.483032 4.105988,-1.483032m0.132019,0l0,0m-4.653015,1.868042c0,0.001953 -0.001984,0.001953 -0.003998,0.005981c0.002014,-0.004028 0.003998,-0.004028 0.003998,-0.005981m-0.018005,0.017944l0,0.006042l0,-0.006042m-0.011993,0.012024c-0.001984,0.002014 -0.001984,0.005981 -0.009003,0.005981c0.007019,0 0.007019,-0.003967 0.009003,-0.005981m-0.016998,0.018005c0,0 -0.002991,0.005981 -0.005981,0.005981c0.002991,0 0.005981,-0.005981 0.005981,-0.005981m-0.01001,0.012024c-0.011993,0.007996 -0.021973,0.018005 -0.028992,0.026001c0.007019,-0.007996 0.016998,-0.018005 0.028992,-0.026001m-0.028992,0.026001c-0.386993,0.362 -0.850006,0.625977 -1.350006,0.776978c-0.013977,0.005981 -0.029999,0.012024 -0.047974,0.018005c0.518982,-0.151001 0.994995,-0.419983 1.39798,-0.794983" id="path37769"/>
     </g>
     <g id="g37771">
      <path fill="#bd1c2e" fill-rule="nonzero" d="m-223.581665,553.786682l-0.040985,0l-0.011993,0l-0.027008,0l-0.028992,0l-0.012024,0c-0.798981,0.012024 -1.590973,0.085022 -2.366974,0.22998c0.077972,0.809021 0.085999,1.628052 0.018982,2.449036c-0.143982,1.820984 -0.635986,3.583984 -1.46701,5.231995c-0.40799,0.820984 -1.129974,1.442017 -1.998993,1.731018c-0.005981,0.005981 -0.018005,0.005981 -0.022003,0.005981c0.5,-0.151001 0.963013,-0.414978 1.350006,-0.776978c0.007019,-0.007996 0.016998,-0.018005 0.028992,-0.026001c0,0 0.001007,-0.004028 0.004028,-0.006042c0.002991,0 0.005981,-0.005981 0.005981,-0.005981c0.005005,-0.005981 0.007996,-0.005981 0.007996,-0.012024c0.007019,0 0.007019,-0.003967 0.009003,-0.005981c0,0 0.006012,-0.005981 0.011993,-0.005981l0,-0.006042c0.003998,-0.005981 0.01001,-0.009949 0.014008,-0.011963c0.002014,-0.004028 0.003998,-0.004028 0.003998,-0.005981c0,-0.004028 0.009003,-0.01001 0.011993,-0.012024c0.127014,-0.130005 0.264008,-0.252991 0.403015,-0.372986c1.132996,-0.959045 2.570007,-1.483032 4.105988,-1.483032l0.09201,0l0.040009,0c1.729019,0.036011 3.376007,0.716003 4.674988,1.921997c-0.16098,-0.190979 -0.294983,-0.393005 -0.40799,-0.61499c-0.839996,-1.623962 -1.325012,-3.367004 -1.438019,-5.187988c-0.019989,-0.28302 -0.026001,-0.567017 -0.026001,-0.849976l0,-0.012024c0,-0.61499 0.039001,-1.221985 0.124023,-1.828979c-0.720001,-0.164001 -1.451996,-0.267029 -2.19101,-0.315002l-0.002991,0c-0.015015,0 -0.025024,0 -0.041016,-0.004028l-0.007996,0c-0.010971,-0.002014 -0.020996,-0.002014 -0.032013,-0.002014l-0.015991,0l-0.023987,0c-0.007019,0 -0.013,0 -0.020996,-0.003967l-0.016022,0c-0.009979,0 -0.018005,-0.002014 -0.028992,-0.002014l-0.006989,0c-0.080017,-0.004028 -0.158997,-0.005981 -0.239014,-0.01001l-0.003998,0l-0.036987,0l-0.003998,-0.002014l-0.036011,0l-0.006012,0l-0.037994,0l-0.005981,0l-0.034027,0l-0.005981,0l-0.035004,0l-0.044006,0l-0.182007,-0.005981" id="path37773"/>
     </g>
    </g>
   </g>
   <g transform="matrix(15.573485,0,0,-15.573485,5018.7424,8994.5949) " id="g37775">
    <g id="g37777" clip-path="url(#clipPath37779)">
     <g id="g37783">
      <path fill="#303539" fill-rule="nonzero" d="m-234.863861,542.96875c-0.061005,0 -0.123993,0 -0.182983,0.004028l0.065002,0l0.005981,0l0.112,-0.004028" id="path37785"/>
     </g>
     <g id="g37787">
      <path fill="#2e397d" fill-rule="nonzero" d="m-234.863861,542.96875l-0.112,0.004028c0.173004,0 0.341003,0.013977 0.511017,0.037964c0.134979,0.02002 0.268005,0.036011 0.398987,0.049011c-0.259979,-0.060974 -0.528992,-0.091003 -0.798004,-0.091003" id="path37789"/>
     </g>
     <g id="g37791">
      <path fill="#303539" fill-rule="nonzero" d="m-227.661774,548.809204l0,0c0.311005,0.569031 0.580017,1.164001 0.808014,1.778992c-0.227997,-0.61499 -0.497009,-1.209961 -0.808014,-1.778992m0.808014,1.785034c0.003998,0.007996 0.005981,0.019958 0.009003,0.026001c-0.003021,-0.006042 -0.005005,-0.018005 -0.009003,-0.026001m0.015991,0.041992c0.003998,0.003967 0.003998,0.013 0.006012,0.018982c-0.002014,-0.005981 -0.002014,-0.015015 -0.006012,-0.018982m0.015991,0.036987c0,0.005981 0.002014,0.012024 0.002014,0.018005c0,-0.005981 -0.002014,-0.012024 -0.002014,-0.018005m0.014008,0.044006c0,0.003967 0,0.003967 0,0.003967c0,0 0,0 0,-0.003967m0.183014,0.552979c0.003998,0.012024 0.007996,0.023987 0.014008,0.041992c-0.006012,-0.018005 -0.01001,-0.029968 -0.014008,-0.041992m0.014008,0.044006c0.004974,0.015991 0.007996,0.028015 0.010986,0.036987c-0.002991,-0.008972 -0.006012,-0.020996 -0.010986,-0.036987m0.011993,0.041016c0.263977,0.870972 0.441986,1.763977 0.528992,2.661987c-0.087006,-0.89801 -0.265015,-1.791016 -0.528992,-2.661987m-6.686005,1.802979l0,0m0.007996,0.014038l0.002014,0.005981l-0.002014,-0.005981m0.003998,0.013977c0,0.003967 0.003998,0.01001 0.003998,0.01001c0,0 -0.003998,-0.006042 -0.003998,-0.01001m0.007019,0.020996c0.000977,0 0.000977,0.007019 0.000977,0.008972c0,-0.001953 0,-0.008972 -0.000977,-0.008972m0.003998,0.018982l0.003998,0.007019l-0.003998,-0.007019m0.006989,0.018005c0.002014,0.002014 0.002014,0.005005 0.005005,0.010986c-0.002991,-0.005981 -0.002991,-0.008972 -0.005005,-0.010986m0.007996,0.018982c0.001007,0.004028 0.001007,0.006042 0.001007,0.01001c0,-0.003967 0,-0.005981 -0.001007,-0.01001m0.002991,0.018005c0.003998,0.004028 0.003998,0.01001 0.003998,0.012024c0,-0.002014 0,-0.007996 -0.003998,-0.012024m0.008026,0.016052c0.001984,0.011963 0.001984,0.017944 0.005981,0.023987c-0.003998,-0.006042 -0.003998,-0.012024 -0.005981,-0.023987m1.194,9.994995c0.44397,0.203979 0.925995,0.306946 1.408997,0.312988l0.056976,0c0.330017,-0.006042 0.664001,-0.05304 0.989014,-0.152039c-0.018005,0.005005 -0.036011,0.005005 -0.054016,0.013c-0.316986,0.092041 -0.641998,0.137024 -0.965973,0.137024c-0.494019,0 -0.982025,-0.103027 -1.434998,-0.310974" id="path37793"/>
     </g>
     <g id="g37795">
      <path fill="#2e397d" fill-rule="nonzero" d="m-227.661774,548.809204c-0.77298,0.345032 -1.578003,0.617004 -2.410004,0.819031c-1.079987,0.253967 -2.171997,0.382996 -3.277985,0.382996c-0.713989,0 -1.433014,-0.054016 -2.156006,-0.163025c-0.177002,-0.025024 -0.356995,-0.067017 -0.527008,-0.122009c1.290009,0.765015 2.254028,1.962036 2.748016,3.42804l0,0.003967c0.003998,0.002014 0.003998,0.007996 0.007996,0.012024c0.002014,0.002014 0.002014,0.007996 0.002014,0.007996c0,0.003967 0.001984,0.005981 0.001984,0.007996c0.003998,0.003967 0.003998,0.01001 0.003998,0.01001c0.002014,0.005981 0.002014,0.005981 0.003021,0.010986c0.000977,0 0.000977,0.007019 0.000977,0.008972c0.003021,0.004028 0.003021,0.004028 0.003021,0.01001l0.003998,0.007019c0.001984,0.003967 0.001984,0.005981 0.002991,0.010986c0.002014,0.002014 0.002014,0.005005 0.005005,0.010986c0,0.002014 0.002991,0.006042 0.002991,0.006042c0.001007,0.005981 0.001007,0.007996 0.001007,0.011963c0.001984,0.002014 0.001984,0.006042 0.001984,0.007996c0.003998,0.004028 0.003998,0.01001 0.008026,0.012024l0,0.004028c0.001984,0.011963 0.005981,0.017944 0.005981,0.023987c0.209015,0.665955 0.309998,1.357971 0.309998,2.052002c-0.002991,1.094971 -0.263,2.195007 -0.776001,3.222961c-0.03598,0.077026 -0.074982,0.152039 -0.102997,0.234009c-0.31601,0.760986 -0.350006,1.614014 -0.089996,2.406982c0.289001,0.869019 0.911011,1.58905 1.731995,2.003052c0.040009,0.015991 0.076019,0.033997 0.115021,0.052002c0.452972,0.207947 0.94397,0.310974 1.434998,0.310974c0.323975,0 0.648987,-0.044983 0.965973,-0.138977c-0.286987,0.078979 -0.583984,0.120972 -0.884979,0.122986l-0.02301,0c-0.908997,0 -1.78299,-0.359009 -2.432007,-0.997009c-0.653992,-0.64502 -1.020996,-1.525024 -1.024994,-2.442017c-0.005981,-0.914001 0.352997,-1.794006 0.997009,-2.450989c1.283997,-1.299011 2.794006,-2.297974 4.488007,-2.969971c0.794983,-0.314026 1.61499,-0.550049 2.450989,-0.710022c-0.087006,-0.903992 -0.265015,-1.791016 -0.528992,-2.661987c0,-0.004028 -0.001007,-0.004028 -0.001007,-0.004028c0,-0.008972 -0.006012,-0.024963 -0.010986,-0.036987l0,-0.002014c-0.006012,-0.018005 -0.01001,-0.029968 -0.014008,-0.041992c-0.057007,-0.185974 -0.117004,-0.367004 -0.183014,-0.549011c0,0 0,0 0,-0.003967c-0.003998,-0.007996 -0.005981,-0.02002 -0.011993,-0.026001c0,-0.005981 -0.002014,-0.012024 -0.002014,-0.018005c-0.003998,-0.004028 -0.007996,-0.010986 -0.009979,-0.018005c0,-0.005981 -0.002014,-0.015015 -0.006012,-0.02301c-0.003998,0 -0.003998,-0.007019 -0.006989,-0.011963c-0.003021,-0.006042 -0.005005,-0.018005 -0.009003,-0.026001l0,-0.006042c-0.227997,-0.61499 -0.497009,-1.209961 -0.808014,-1.778992" id="path37797"/>
     </g>
     <g id="g37799">
      <path fill="#2e292c" fill-rule="nonzero" d="m-226.069977,554.017151l-0.002991,0l0.002991,0m-3.468994,9.416992c-0.018005,0.006042 -0.035004,0.012024 -0.050995,0.019043c-0.016998,0.004944 -0.03598,0.006958 -0.049957,0.013c0.016968,-0.006042 0.034973,-0.008057 0.052994,-0.013c0.01799,-0.007019 0.034958,-0.013 0.047958,-0.019043" id="path37801"/>
     </g>
     <g id="g37803">
      <path fill="#2d2a32" fill-rule="nonzero" d="m-226.069977,554.017151c-0.835999,0.160034 -1.655945,0.395996 -2.450989,0.710022c-1.69397,0.671997 -3.202972,1.670959 -4.486969,2.969971c-0.64502,0.657043 -1.003021,1.536987 -0.998016,2.450989c0.004028,0.921021 0.372009,1.796997 1.024994,2.442017c0.648987,0.638 1.52301,0.997009 2.432007,0.997009l0.02298,0c0.301025,-0.002014 0.598999,-0.041992 0.886047,-0.120972c0.016968,-0.006042 0.034973,-0.008057 0.049957,-0.013c0.015991,-0.007019 0.033997,-0.013 0.050995,-0.019043c0.004028,0 0.016022,-0.002991 0.02301,-0.005005c0.867981,-0.289978 1.591003,-0.91095 2.002014,-1.731995c0.826965,-1.651978 1.31897,-3.409973 1.463989,-5.234985c0.065979,-0.817017 0.059998,-1.635986 -0.02002,-2.445007" id="path37805"/>
     </g>
    </g>
   </g>
   <g transform="matrix(15.573485,0,0,-15.573485,5018.7424,8994.5949) " id="g37807">
    <g id="g37809" clip-path="url(#clipPath37811)">
     <g id="g37815">
      <path fill="#e7232b" fill-rule="nonzero" d="m-223.236969,534.683655c0.167023,0 0.337006,0.012024 0.505005,0.038025l0.097992,0.018005c0.025024,0.005981 0.050018,0.008972 0.074005,0.014954c-0.054993,-0.014954 -0.113983,-0.023987 -0.171997,-0.032959c-0.167999,-0.026001 -0.337982,-0.038025 -0.505005,-0.038025m-0.027985,0c-0.729004,0.002014 -1.444,0.236023 -2.035004,0.669983c-0.740997,0.54303 -1.233002,1.359009 -1.372009,2.269043c-0.253998,1.688965 -1.188995,3.184998 -2.630981,4.199951c1.441986,-1.014954 2.376984,-2.508972 2.630981,-4.199951c0.139008,-0.910034 0.631012,-1.726013 1.372009,-2.269043c0.591003,-0.43396 1.306,-0.667969 2.035004,-0.669983m-0.015991,11.030029c-0.609009,0.645996 -1.289001,1.237976 -2.031006,1.760986c0.742004,-0.52301 1.421997,-1.11499 2.031006,-1.760986m-2.164001,1.85199l0,0m-0.029022,0.023987c-0.001984,0 -0.003998,0.002014 -0.005981,0.002014c0.001984,0 0.003998,-0.002014 0.005981,-0.002014m-0.030975,0.018005c-0.003021,0.005981 -0.008026,0.005981 -0.011017,0.012024c0.002991,-0.006042 0.007996,-0.006042 0.011017,-0.012024m-0.030029,0.02002c-0.005981,0.005981 -0.011993,0.009949 -0.016998,0.014954c0.005005,-0.005005 0.011017,-0.008972 0.016998,-0.014954m-0.029999,0.020996c-0.006989,0.005981 -0.014984,0.010986 -0.02597,0.015991c0.010986,-0.005005 0.018982,-0.01001 0.02597,-0.015991m-0.029999,0.019958c-0.656982,0.44104 -1.347992,0.821045 -2.066986,1.140015l0,0.002014c0.718994,-0.320984 1.410004,-0.700989 2.066986,-1.142029" id="path37817"/>
     </g>
     <g id="g37819">
      <path fill="#ed147c" fill-rule="nonzero" d="m-223.236969,534.683655l-0.027985,0c-0.729004,0.002014 -1.444,0.236023 -2.035004,0.669983c-0.740997,0.54303 -1.233002,1.359009 -1.372009,2.269043c-0.253998,1.690979 -1.188995,3.184998 -2.630981,4.199951c-1.180023,0.837036 -2.585022,1.27301 -4.046021,1.27301c-0.234985,0 -0.475983,-0.011963 -0.71698,-0.03595c0.257996,0.061951 0.509979,0.15094 0.753998,0.27594c1.630981,0.821045 3.052979,1.946045 4.214996,3.34906c0.546997,0.664978 1.028992,1.375 1.434998,2.123962c0.718994,-0.31897 1.410004,-0.698975 2.066986,-1.140015c0,-0.003967 0.002014,-0.003967 0.002014,-0.003967c0.013,-0.005005 0.020996,-0.01001 0.027985,-0.015991c0.006012,0 0.007019,-0.006042 0.013,-0.006042c0.005005,-0.005005 0.011017,-0.008972 0.016998,-0.014954c0.008026,-0.002014 0.012024,-0.006042 0.019012,-0.007996c0.002991,-0.006042 0.007996,-0.006042 0.011017,-0.012024c0.008972,-0.005981 0.015991,-0.005981 0.024994,-0.015991c0.001984,0 0.003998,-0.002014 0.005981,-0.002014c0.008026,-0.005981 0.019012,-0.015991 0.029022,-0.023987c0.044983,-0.028992 0.087982,-0.059021 0.132996,-0.091003c0.742004,-0.52301 1.421997,-1.11499 2.031006,-1.760986c-0.512024,-0.58905 -0.97702,-1.218994 -1.392029,-1.894043c-0.952972,-1.557983 -1.587982,-3.276001 -1.886993,-5.097961c-0.148987,-0.905029 0.06601,-1.833008 0.597015,-2.577026c0.537994,-0.747009 1.347992,-1.244995 2.25,-1.398987c0.187988,-0.026001 0.376984,-0.044006 0.562988,-0.044006c0.174011,0 0.347992,0.012024 0.515991,0.038025l-0.097992,-0.018005c-0.167999,-0.026001 -0.337982,-0.038025 -0.505005,-0.038025" id="path37821"/>
     </g>
     <g id="g37823">
      <path fill="#e7232b" fill-rule="nonzero" d="m-235.046478,542.973206c-0.712982,0.013977 -1.405975,0.244019 -1.987976,0.669983c-0.73999,0.545044 -1.229004,1.358032 -1.369019,2.268005c-0.024963,0.169006 -0.039001,0.340027 -0.039001,0.507996c0,-0.167969 0.014038,-0.338989 0.039001,-0.507996c0.140015,-0.909973 0.629028,-1.722961 1.369019,-2.268005c0.582001,-0.425964 1.274994,-0.656006 1.987976,-0.669983m-2.710999,5.522034c0,0.004944 0.004028,0.004944 0.004028,0.004944c0,0 -0.004028,0 -0.004028,-0.004944m0.01001,0.014954c0,0.004028 0.004028,0.005005 0.004028,0.005005c0,0 -0.004028,-0.000977 -0.004028,-0.005005m0.013,0.018005c0,0.004028 0.002014,0.006042 0.003998,0.006042c-0.001984,0 -0.003998,-0.006042 -0.003998,-0.006042m0.016998,0.017029l0.003021,0.005981l-0.003021,-0.005981m0.013031,0.018005c0,0.003967 0.002014,0.005981 0.002014,0.005981c0,0 -0.002014,-0.002014 -0.002014,-0.005981m0.011993,0.015991c0,0.002014 0.002991,0.002014 0.004974,0.007996c-0.001984,-0.005981 -0.004974,-0.005981 -0.004974,-0.007996m0.01297,0.013977c0,0.004028 0,0.006042 0.003998,0.006042c-0.003998,0 -0.003998,-0.002014 -0.003998,-0.006042m0.007996,0.015991c0.006012,0.006042 0.007996,0.011047 0.013,0.013c-0.005005,-0.001953 -0.006989,-0.006958 -0.013,-0.013m0.019043,0.02002c0.002014,0.005981 0.005005,0.005981 0.006958,0.010986c-0.001953,-0.005005 -0.004944,-0.005005 -0.006958,-0.010986m0.009979,0.010986c0.005981,0.006042 0.009003,0.012024 0.011993,0.012024c-0.002991,0 -0.006012,-0.005981 -0.011993,-0.012024m0.011993,0.015015c0.421021,0.499023 0.973022,0.872009 1.591003,1.065979l-0.003021,0c-0.616974,-0.197998 -1.169952,-0.566956 -1.587982,-1.065979" id="path37825"/>
     </g>
     <g id="g37827">
      <path fill="#ed147c" fill-rule="nonzero" d="m-235.046478,542.973206c-0.712982,0.013977 -1.405975,0.244019 -1.987976,0.669983c-0.73999,0.545044 -1.229004,1.358032 -1.369019,2.268005c-0.024963,0.169006 -0.039001,0.340027 -0.039001,0.507996c0,0.738037 0.234009,1.460022 0.674011,2.063049c0.001984,0.001953 0.006012,0.011963 0.010986,0.013c0,0.004944 0.004028,0.004944 0.004028,0.004944c0.001984,0.006042 0.004028,0.008057 0.005981,0.01001c0,0.004028 0.004028,0.005005 0.004028,0.005005c0.003967,0.006042 0.005981,0.006042 0.008972,0.013c0,0 0.002014,0.006042 0.003998,0.006042c0.005035,0.002991 0.01001,0.010986 0.013,0.010986l0.003021,0.005981c0.001007,0.004028 0.005981,0.005981 0.01001,0.012024c0,0.003967 0.002014,0.005981 0.002014,0.005981c0.005951,0 0.005951,0.005981 0.009979,0.01001c0,0.002014 0.002991,0.002014 0.004974,0.007996c0,0.003967 0.003998,0.003967 0.007996,0.005981c0,0.004028 0,0.006042 0.003998,0.006042c0,0.005981 0.002014,0.005981 0.003998,0.009949c0.006012,0.006042 0.007996,0.011047 0.013,0.013c0.003052,0.005005 0.003052,0.007019 0.006042,0.007019c0.002014,0.005981 0.005005,0.005981 0.006958,0.010986l0.003021,0c0.005981,0.006042 0.009003,0.012024 0.011993,0.012024l0,0.002991c0.41803,0.499023 0.971008,0.867981 1.587982,1.065979l0.003021,0c0.002991,0.004028 0.004028,0.004028 0.006989,0.006042c-0.123993,-0.077026 -0.251007,-0.147034 -0.381989,-0.210022c-0.820007,-0.409973 -1.442017,-1.130005 -1.731995,-2.000977c-0.117004,-0.353027 -0.172974,-0.712036 -0.175018,-1.077026l0,-0.028992c0.002045,-0.528015 0.125,-1.054016 0.367004,-1.536011c0.411987,-0.817993 1.131012,-1.445007 2.003998,-1.731018c0.294006,-0.096985 0.595032,-0.156006 0.903992,-0.169983" id="path37829"/>
     </g>
     <g id="g37831">
      <path fill="#323037" fill-rule="nonzero" d="m-234.982086,542.96875l-0.063965,0l0.063965,0l0.002014,0l0.004028,0l-0.006042,0m7.320007,5.840027z" id="path37833"/>
     </g>
     <g id="g37835">
      <path fill="#30326b" fill-rule="nonzero" d="m-234.982086,542.96875l-0.063965,0c-0.309021,0.018005 -0.611023,0.078003 -0.905029,0.174988c-0.872986,0.285034 -1.59198,0.912048 -2.003998,1.72699c-0.242004,0.486023 -0.36496,1.012024 -0.367004,1.539001l0,0.028015c0.002045,0.366028 0.059052,0.725037 0.175995,1.074036c0.290039,0.875 0.912018,1.592957 1.731018,2.002991c0.130981,0.065979 0.257996,0.13501 0.382019,0.210999c0.169983,0.054993 0.349976,0.096985 0.527985,0.122009c0.722015,0.109985 1.44101,0.162964 2.156036,0.162964c1.102966,0 2.19696,-0.127991 3.272949,-0.381958c0.835999,-0.203003 1.639038,-0.473999 2.414001,-0.820007c-0.40799,-0.752991 -0.889008,-1.460999 -1.434998,-2.124023c-1.161987,-1.403015 -2.583954,-2.531982 -4.217957,-3.348999c-0.241028,-0.125 -0.493042,-0.213989 -0.751038,-0.278015c-0.13501,-0.010986 -0.265991,-0.028992 -0.401001,-0.046997c-0.166992,-0.028015 -0.335999,-0.041992 -0.508972,-0.041992l-0.004028,0l-0.002014,0" id="path37837"/>
     </g>
    </g>
   </g>
   <g transform="matrix(15.573485,0,0,-15.573485,5018.7424,8994.5949) " id="g37839">
    <g id="g37841" clip-path="url(#clipPath37843)">
     <g id="g37847">
      <path fill="#435d40" fill-rule="nonzero" d="m-210.241882,543.591858c0.006012,0.004028 0.014008,0.01001 0.02005,0.01001c0.655975,0.26001 1.212006,0.708008 1.600983,1.286987c-0.393036,-0.584961 -0.961029,-1.039001 -1.621033,-1.296997m1.623016,1.301025c0.002014,0.001953 0.005981,0.007996 0.005981,0.011963c0,-0.003967 -0.003967,-0.01001 -0.005981,-0.011963m0.012024,0.018005c0,0.001953 0.003967,0.007996 0.006012,0.013977c-0.002045,-0.005981 -0.006012,-0.012024 -0.006012,-0.013977m0.010986,0.013977c0,0.005005 0.002991,0.008972 0.006989,0.010986c-0.003998,-0.002014 -0.006989,-0.005981 -0.006989,-0.010986m0.009979,0.02301c0.003021,0 0.006012,0 0.007996,0.005981c-0.001984,-0.005981 -0.004974,-0.005981 -0.007996,-0.005981m0.015045,0.018005c0,0 0.00296,0 0.00296,0.002014c0,-0.002014 -0.00296,-0.002014 -0.00296,-0.002014m0.010986,0.018005c0,0 0,0.001953 0.003967,0.005981c-0.003967,-0.004028 -0.003967,-0.005981 -0.003967,-0.005981m0.054962,0.094971l0,0m0.015015,0.018005l0,0.002014l0,-0.002014m0.008026,0.015991l0,0m0.01001,0.018005c0,0.002991 0,0.002991 0.001007,0.002991c-0.001007,0 -0.001007,0 -0.001007,-0.002991m0.009949,0.018005c0,0.004028 0,0.004028 0.002014,0.004028c-0.002014,0 -0.002014,0 -0.002014,-0.004028m0.011047,0.021973l0,0.002014l0,-0.002014m0.01001,0.017029c0,0.002014 0.00296,0.002014 0.00296,0.002014c0,0 -0.00296,0 -0.00296,-0.002014m0.009949,0.02002l0,0m0.400024,1.617981c-0.005981,0.328979 -0.051025,0.661011 -0.146027,0.978027c0.095001,-0.317017 0.140045,-0.649048 0.146027,-0.978027m-10.734009,2.284973c-0.428009,0.730042 -0.787964,1.491028 -1.075012,2.294006c0.287048,-0.802979 0.647003,-1.563965 1.075012,-2.291992l0,-0.002014m9.307983,0.502014c-0.139954,0.103027 -0.289978,0.197998 -0.445007,0.275024c-1.148987,0.596985 -2.093994,1.458008 -2.761993,2.498962c0.667999,-1.040955 1.613007,-1.901978 2.761993,-2.498962c0.155029,-0.077026 0.305054,-0.171997 0.445007,-0.275024m-10.388977,1.804016c-0.002991,0.005981 -0.005005,0.012024 -0.007019,0.018005c0.002014,-0.005981 0.004028,-0.012024 0.007019,-0.018005m-0.017029,0.047974l0,0.004028l0,-0.004028m-0.181976,0.549011l-0.002014,0.005981l0.002014,-0.005981m-0.013,0.036011c0,0.005981 0,0.018005 -0.005005,0.02301c0.005005,-0.005005 0.005005,-0.017029 0.005005,-0.02301m-0.007019,0.031982c-0.205963,0.677002 -0.358978,1.356018 -0.455994,2.048035c0.098999,-0.686035 0.250031,-1.371033 0.455994,-2.048035m1.300018,10.554993c0.39801,0.484009 0.929016,0.848022 1.530029,1.054016c-0.597046,-0.205994 -1.126007,-0.570007 -1.525024,-1.047974c-0.002014,0 -0.005005,-0.006042 -0.005005,-0.006042m1.530029,1.054016c0.010986,0.004028 0.019958,0.005005 0.029968,0.009033c-0.01001,-0.004028 -0.018982,-0.005005 -0.029968,-0.009033m0.031952,0.010986c0,0 0.006012,0.005005 0.007996,0.005005c-0.001984,0 -0.005951,-0.005005 -0.005951,-0.005005m0.016968,0.007019c0,0 0.002991,0.004028 0.006042,0.004028c-0.003052,0 -0.005035,-0.004028 -0.005035,-0.004028m0.02298,0.009033c0.014008,0.001953 0.027008,0.005981 0.039001,0.011963c-0.011993,-0.005981 -0.024994,-0.01001 -0.039001,-0.011963" id="path37849"/>
     </g>
     <g id="g37851">
      <path fill="#3972c1" fill-rule="nonzero" d="m-210.22226,543.603577c0.209991,0.091003 0.40802,0.208008 0.598999,0.343018c0.742981,0.534973 1.245026,1.344971 1.393005,2.248962c0.03302,0.177002 0.046021,0.357056 0.046021,0.537048l0,0.047974c-0.00705,0.708008 -0.227051,1.406006 -0.64505,1.991028c-0.53598,0.745972 -1.341949,1.248962 -2.247986,1.399963c-0.70401,0.11499 -1.406982,0.171021 -2.110016,0.174988l-0.063965,0c-1.078033,-0.003967 -2.147034,-0.138977 -3.205994,-0.412964c-0.796021,-0.202026 -1.565033,-0.478027 -2.308044,-0.820984c-0.427979,0.727966 -0.786987,1.494995 -1.073944,2.292969c-0.002045,0.004028 -0.004059,0.005981 -0.006012,0.010986c-0.004028,0.006042 -0.006012,0.012024 -0.007996,0.022034c-0.004028,0.007996 -0.006012,0.018005 -0.01001,0.026001l0,0.005981c-0.021027,0.060974 -0.045013,0.125 -0.06604,0.187988c-0.040985,0.119019 -0.078979,0.238037 -0.11499,0.356018c0,0.003967 -0.001953,0.005981 -0.001953,0.008972c-0.004028,0.007996 -0.006042,0.018005 -0.012054,0.026001c0,0.006042 0,0.018005 -0.004974,0.024048c-0.002014,0.005981 -0.002014,0.005981 -0.002014,0.007996c-0.205994,0.677979 -0.355988,1.362 -0.455994,2.049988c0.763,0.174988 1.512024,0.411011 2.242035,0.716003c1.688995,0.700012 3.208954,1.713989 4.522949,3.011963c0.654022,0.64502 1.024017,1.522034 1.029022,2.438049l0,0.040955c-0.005005,0.905029 -0.362976,1.769043 -0.997009,2.410034c-0.643982,0.656006 -1.52301,1.02301 -2.438965,1.028992l-0.02301,0c-0.90799,0 -1.782043,-0.359009 -2.429016,-0.999023c-0.053009,-0.049988 -0.106995,-0.098999 -0.159973,-0.152954c0.002991,0.005981 0.005981,0.007996 0.009949,0.011963c0,0.002014 0.003998,0.006042 0.006012,0.006042c0.398041,0.47998 0.928009,0.844971 1.523987,1.050964c0.011047,0.002014 0.021027,0.005981 0.031006,0.007996l0.002014,0c0.001007,0.004028 0.005035,0.004028 0.006989,0.004028c0.002014,0 0.007996,0.001953 0.011047,0.001953c0.000977,0.004028 0.00296,0.004028 0.006958,0.004028c0.007996,0 0.011017,0.005981 0.017029,0.005981c0.013977,0.002014 0.027985,0.006042 0.037964,0.011047c0.330994,0.099976 0.673035,0.151001 1.011047,0.151001c0.549988,0 1.093994,-0.131042 1.587952,-0.386047c0.815002,-0.422974 1.430023,-1.151001 1.709045,-2.024963c0.276001,-0.871033 0.19696,-1.822998 -0.225037,-2.638c-0.786957,-1.519043 -0.911011,-3.278015 -0.342987,-4.942993c0.179993,-0.533997 0.422028,-1.036011 0.718994,-1.5c0.667999,-1.04303 1.613007,-1.904053 2.761017,-2.498047c0.154968,-0.079956 0.302979,-0.174988 0.445984,-0.273987c0.591003,-0.432007 1.035004,-1.046997 1.26001,-1.749023c0.004974,-0.017944 0.012024,-0.041992 0.02002,-0.059998c0.092957,-0.320984 0.139984,-0.649963 0.139984,-0.980957l0,-0.018005c0,-0.54303 -0.129028,-1.087036 -0.380981,-1.578979c-0.006042,-0.006042 -0.012054,-0.016052 -0.014038,-0.018005l0,-0.004028c-0.001984,-0.005981 -0.004974,-0.012024 -0.006989,-0.013977c0,-0.004028 -0.003021,-0.004028 -0.003021,-0.004028c-0.003998,-0.005005 -0.006989,-0.010986 -0.009979,-0.016968l0,-0.002014c-0.005005,-0.004028 -0.005005,-0.01001 -0.01001,-0.015991l0,-0.002014c-0.006989,-0.005981 -0.006989,-0.01001 -0.008972,-0.018005l-0.002014,0c-0.001984,-0.005981 -0.005981,-0.012024 -0.009979,-0.018005l0,-0.003967c-0.002014,-0.006042 -0.006042,-0.009033 -0.008026,-0.009033l0,-0.005005c-0.005005,-0.007996 -0.005005,-0.013977 -0.013977,-0.018982c-0.018021,-0.030029 -0.036041,-0.059998 -0.052032,-0.090027c-0.003998,0 -0.003998,-0.003967 -0.003998,-0.005981c-0.002991,-0.003967 -0.006012,-0.005005 -0.007996,-0.012024c0,-0.003967 -0.002991,-0.005981 -0.002991,-0.005981c-0.002991,-0.005981 -0.006012,-0.007996 -0.006012,-0.010986c-0.002014,0 -0.004959,-0.005981 -0.007965,-0.005981c-0.003052,-0.007019 -0.003052,-0.007019 -0.003052,-0.012024c-0.003983,0 -0.006958,-0.005981 -0.006958,-0.007996c0,-0.004028 -0.006042,-0.004028 -0.006042,-0.004028c-0.001953,-0.005981 -0.005981,-0.011963 -0.007996,-0.013977l-0.003998,-0.004028c0,-0.005981 -0.003998,-0.011963 -0.004974,-0.011963l-0.002014,-0.002014c-0.388977,-0.583008 -0.946014,-1.031006 -1.60199,-1.289001" id="path37853"/>
     </g>
     <g id="g37855">
      <path fill="#44282d" fill-rule="nonzero" d="m-220.521179,554.131897z" id="path37857"/>
     </g>
     <g id="g37859">
      <path fill="#452833" fill-rule="nonzero" d="m-220.521179,554.131897l0,0l-0.001984,0c-0.084961,0.606995 -0.123993,1.213989 -0.123993,1.828979l0,0.011047c0,0.283997 0.006989,0.567993 0.026001,0.850952c0.113983,1.821045 0.598022,3.564026 1.438995,5.188049c0.112,0.221985 0.247009,0.42395 0.406982,0.61499c0.05304,0.052979 0.107025,0.102966 0.160034,0.151978c0.646973,0.640991 1.520996,1 2.428986,1l0.022034,0c0.915955,-0.005981 1.794952,-0.377014 2.439972,-1.028992c0.633972,-0.643005 0.992004,-1.505981 0.993988,-2.409973l0,-0.041016c-0.001984,-0.916016 -0.371979,-1.79303 -1.026001,-2.440002c-1.31601,-1.296997 -2.834015,-2.309998 -4.52301,-3.01001c-0.72995,-0.304993 -1.480988,-0.541992 -2.242004,-0.716003" id="path37861"/>
     </g>
    </g>
   </g>
   <g transform="matrix(15.573485,0,0,-15.573485,5018.7424,8994.5949) " id="g37863">
    <g id="g37865" clip-path="url(#clipPath37867)">
     <g id="g37871">
      <path fill="#eb641b" fill-rule="nonzero" d="m-222.560181,534.751099c0.029022,0.005981 0.057007,0.012024 0.085052,0.018005c0.478973,0.096985 0.935944,0.289001 1.338959,0.578979c0.744995,0.535034 1.252014,1.343994 1.395996,2.247009c0.308014,1.846008 1.274017,3.460022 2.725037,4.546997c0.038971,0.023987 0.075958,0.054016 0.113983,0.083008c-0.038025,-0.028992 -0.075012,-0.059021 -0.113983,-0.083008c-1.451019,-1.086975 -2.417023,-2.700989 -2.725037,-4.546997c-0.143982,-0.903015 -0.651001,-1.711975 -1.395996,-2.247009c-0.428009,-0.307007 -0.913971,-0.507996 -1.424011,-0.596985m10.921997,8.544983c-0.037994,0 -0.071991,0 -0.107971,0.004028c0.03598,-0.004028 0.069977,-0.004028 0.103973,-0.004028c0.480011,0 0.957031,0.101013 1.394012,0.294006c0,0.002014 0.002991,0.002014 0.006012,0.002014c-0.439026,-0.195007 -0.916992,-0.296021 -1.396027,-0.296021m-0.121002,0.004028l-0.003998,0l0.003998,0m-0.441986,0.041992c-0.016998,0.005981 -0.028992,0.005981 -0.038971,0.012024c0.009979,-0.006042 0.021973,-0.006042 0.038971,-0.012024m-0.078003,0.013c-0.30899,0.047974 -0.623993,0.072021 -0.931,0.072021c0.307007,0 0.622009,-0.024048 0.931,-0.072021m-0.944,0.072021l0.01001,0l-0.01001,0m-10.057983,2.286011l0,0c0.557983,0.634949 1.169983,1.219971 1.839996,1.745972c-0.670013,-0.526001 -1.282013,-1.111023 -1.839996,-1.745972m1.839996,1.745972c0.011993,0.01001 0.018982,0.018005 0.03299,0.026978c-0.014008,-0.008972 -0.020996,-0.016968 -0.03299,-0.026978m0.044983,0.036011c0.006012,0.005981 0.013031,0.010986 0.019043,0.016968c-0.006012,-0.005981 -0.013031,-0.010986 -0.019043,-0.016968m0.033051,0.028992c0.006958,0.002014 0.015961,0.007996 0.021973,0.013977c-0.006012,-0.005981 -0.015015,-0.011963 -0.021973,-0.013977m0.036957,0.026001c0.006012,0.003967 0.009003,0.01001 0.015991,0.015991c-0.006989,-0.005981 -0.009979,-0.012024 -0.015991,-0.015991m0.036041,0.028015c0.004974,0.005981 0.008972,0.006958 0.014954,0.010986c-0.005981,-0.004028 -0.009979,-0.005005 -0.014954,-0.010986m0.032959,0.026001c0.009003,0.002991 0.010986,0.008972 0.018005,0.014954c-0.007019,-0.005981 -0.009003,-0.011963 -0.018005,-0.014954m0.036987,0.026978c0.006042,0.002014 0.01001,0.007996 0.017029,0.012024c-0.007019,-0.004028 -0.010986,-0.01001 -0.017029,-0.012024m0.029022,0.023987c0.014984,0.01001 0.027039,0.015991 0.036987,0.026001c-0.009949,-0.01001 -0.022003,-0.015991 -0.036987,-0.026001m0.036987,0.026001c0.753021,0.562988 1.553009,1.04303 2.389008,1.432007l0,-0.002014c-0.835999,-0.390991 -1.635986,-0.867004 -2.389008,-1.429993" id="path37873"/>
     </g>
     <g id="g37875">
      <path fill="#f58615" fill-rule="nonzero" d="m-222.475281,534.769104c0.802002,0.186035 1.516998,0.651978 2.008026,1.315979c0.544006,0.746033 0.769989,1.666016 0.636993,2.577026c-0.280975,1.802002 -0.913971,3.502991 -1.88797,5.04303c-0.457001,0.71698 -0.977051,1.391968 -1.563049,2.003967c0.558044,0.638977 1.170044,1.223999 1.840027,1.749023c0.012024,0.010986 0.018982,0.018982 0.03302,0.027954c0.001953,0.002014 0.003998,0.007019 0.011963,0.009033c0.006042,0.005005 0.013,0.010986 0.019043,0.016968c0.005981,0.004028 0.010986,0.006042 0.013977,0.012024c0.007019,0.002014 0.014008,0.007996 0.021973,0.012024c0.006042,0.005981 0.01001,0.011963 0.015015,0.013977c0.002014,0.004028 0.009033,0.01001 0.016022,0.015991c0.007965,0 0.011993,0.005981 0.019989,0.012024c0.002991,0.005005 0.008972,0.005005 0.015015,0.010986c0.005981,0.007019 0.011963,0.013 0.018005,0.013c0.008972,0.005005 0.010986,0.010986 0.017975,0.017029c0.006012,0.002991 0.009979,0.005981 0.019012,0.011963c0.005981,0.002014 0.01001,0.007996 0.016968,0.012024c0.004028,0.005981 0.01001,0.007996 0.012024,0.011963c0.015015,0.01001 0.028015,0.015991 0.037018,0.026001c0.75296,0.563049 1.552979,1.039001 2.388977,1.429993c0.410004,-0.699951 0.886993,-1.368958 1.422028,-1.994995c1.186951,-1.388977 2.619995,-2.522949 4.259949,-3.367981c0.495026,-0.258972 1.04303,-0.388 1.58905,-0.388c0.354004,0 0.705963,0.051025 1.046997,0.161987c0.070007,0.02002 0.132996,0.044006 0.19696,0.067993c-0.434998,-0.192993 -0.911987,-0.294006 -1.391998,-0.294006c-0.033997,0 -0.067993,0 -0.103973,0.004028l-0.013031,0l-0.003998,0c-0.148987,0.005981 -0.294983,0.018005 -0.441986,0.041992c-0.01297,0.005981 -0.024994,0.005981 -0.035004,0.007996c-0.013977,0.002991 -0.026001,0.002991 -0.042969,0.002991c-0.305023,0.050049 -0.619995,0.074036 -0.927002,0.074036l-0.002991,0l-0.01001,0c-1.300049,-0.004028 -2.577026,-0.416016 -3.67804,-1.202026c-0.037994,-0.028992 -0.074951,-0.059998 -0.113953,-0.083008c-1.453003,-1.086975 -2.420044,-2.700989 -2.725037,-4.546997c-0.144012,-0.902954 -0.651001,-1.711975 -1.395996,-2.247009c-0.401978,-0.289978 -0.861023,-0.483948 -1.33902,-0.578979" id="path37877"/>
     </g>
     <g id="g37879">
      <path fill="#e52127" fill-rule="nonzero" d="m-222.634369,534.739258l0.131012,0.02301c0.007996,0.002014 0.020996,0.007019 0.028015,0.007019c-0.024017,-0.007019 -0.055023,-0.012024 -0.085022,-0.018005c-0.024994,-0.006042 -0.048981,-0.007996 -0.074005,-0.012024m-0.645996,10.970032l0,0l0,0.003967l0,-0.003967" id="path37881"/>
     </g>
     <g id="g37883">
      <path fill="#ed2325" fill-rule="nonzero" d="m-223.150055,534.70166c-0.186035,0 -0.375015,0.013977 -0.562988,0.04303c-0.902039,0.154968 -1.711029,0.652954 -2.250031,1.397949c-0.531006,0.746033 -0.746002,1.672058 -0.597015,2.579041c0.299011,1.820007 0.934021,3.539978 1.888,5.096008c0.415009,0.671997 0.879028,1.307007 1.391022,1.891968c0.586029,-0.612976 1.105988,-1.286987 1.563019,-2.005005c0.973969,-1.539001 1.610962,-3.23999 1.886963,-5.042969c0.137054,-0.910034 -0.091949,-1.830994 -0.634949,-2.575989c-0.493042,-0.664001 -1.207031,-1.131042 -2.006042,-1.317017c-0.01001,0 -0.023987,-0.004028 -0.031982,-0.005981l-0.130005,-0.02301c-0.167969,-0.026001 -0.34198,-0.038025 -0.515991,-0.038025" id="path37885"/>
     </g>
     <g id="g37887">
      <path fill="#4a4536" fill-rule="nonzero" d="m-210.248688,543.589905c0.007019,0.002014 0.013,0.005981 0.021027,0.012024l0.004974,0c-0.004974,0 -0.013,-0.006042 -0.018982,-0.01001c-0.002991,0 -0.003998,0 -0.007019,-0.002014m-8.516998,5.520996l0,0l0.003998,0l-0.003998,0" id="path37889"/>
     </g>
     <g id="g37891">
      <path fill="#485138" fill-rule="nonzero" d="m-211.493774,543.359863c-0.548981,0 -1.095001,0.129028 -1.589996,0.388977c-1.638977,0.844055 -3.071991,1.983032 -4.259979,3.367004c-0.537018,0.626038 -1.011017,1.295044 -1.421021,1.995056l0,0.001953c0.740021,0.343018 1.511017,0.619019 2.305023,0.821045c1.057983,0.273987 2.129974,0.407959 3.207977,0.407959l0.065002,0c0.700989,0 1.406006,-0.05896 2.102997,-0.174011c0.90802,-0.146973 1.71701,-0.651001 2.253998,-1.395996c0.417999,-0.584961 0.639008,-1.283997 0.645996,-1.992004l0,-0.046997c-0.002991,-0.180969 -0.016998,-0.360962 -0.04599,-0.537964c-0.148987,-0.903992 -0.651001,-1.713013 -1.398987,-2.25c-0.184998,-0.132996 -0.384003,-0.25 -0.593994,-0.341003c0,-0.002014 -0.001007,-0.002014 -0.007019,-0.002014c-0.007996,-0.005981 -0.013,-0.01001 -0.020996,-0.012024c-0.062988,-0.023987 -0.127014,-0.047974 -0.195984,-0.067993c-0.34201,-0.110962 -0.693024,-0.161987 -1.047028,-0.161987" id="path37893"/>
     </g>
    </g>
   </g>
  </g>
 </g>
</svg>