<?xml version="1.0" encoding="UTF-8" standalone="no"?>
<!-- Created with Inkscape (http://www.inkscape.org/) -->

<svg
   xmlns:dc="http://purl.org/dc/elements/1.1/"
   xmlns:cc="http://creativecommons.org/ns#"
   xmlns:rdf="http://www.w3.org/1999/02/22-rdf-syntax-ns#"
   xmlns:svg="http://www.w3.org/2000/svg"
   xmlns="http://www.w3.org/2000/svg"
   xmlns:sodipodi="http://sodipodi.sourceforge.net/DTD/sodipodi-0.dtd"
   xmlns:inkscape="http://www.inkscape.org/namespaces/inkscape"
   width="311.13327mm"
   height="119.578mm"
   viewBox="0 0 1102.4407 423.70158"
   id="svg39880"
   version="1.1"
   inkscape:version="0.91 r13725"
   sodipodi:docname="ביחד בלבן.svg">
  <defs
     id="defs39882">
    <clipPath
       clipPathUnits="userSpaceOnUse"
       id="clipPath37667">
      <path
         d="m 110.07,484.065 105.016,0 0,105.035 -105.016,0 0,-105.035 z"
         id="path37669"
         inkscape:connector-curvature="0" />
    </clipPath>
    <clipPath
       clipPathUnits="userSpaceOnUse"
       id="clipPath37699">
      <path
         d="m 157.965,573.214 9.108,0 0,10.945 -9.108,0 0,-10.945 z"
         id="path37701"
         inkscape:connector-curvature="0" />
    </clipPath>
    <clipPath
       clipPathUnits="userSpaceOnUse"
       id="clipPath37711">
      <path
         d="m 140.437,562.153 10.825,0 0,9.154 -10.825,0 0,-9.154 z"
         id="path37713"
         inkscape:connector-curvature="0" />
    </clipPath>
    <clipPath
       clipPathUnits="userSpaceOnUse"
       id="clipPath37723">
      <path
         d="m 147.248,541.553 9.503,0 0,10.362 -9.503,0 0,-10.362 z"
         id="path37725"
         inkscape:connector-curvature="0" />
    </clipPath>
    <clipPath
       clipPathUnits="userSpaceOnUse"
       id="clipPath37735">
      <path
         d="m 168.376,541.652 9.715,0 0,10.13 -9.715,0 0,-10.13 z"
         id="path37737"
         inkscape:connector-curvature="0" />
    </clipPath>
    <clipPath
       clipPathUnits="userSpaceOnUse"
       id="clipPath37747">
      <path
         d="m 174.031,562.239 10.682,0 0,9.226 -10.682,0 0,-9.226 z"
         id="path37749"
         inkscape:connector-curvature="0" />
    </clipPath>
    <clipPath
       clipPathUnits="userSpaceOnUse"
       id="clipPath37763">
      <path
         d="m 151.662,564.754 21.277,0 0,9.992 -21.277,0 0,-9.992 z"
         id="path37765"
         inkscape:connector-curvature="0" />
    </clipPath>
    <clipPath
       clipPathUnits="userSpaceOnUse"
       id="clipPath37779">
      <path
         d="m 147.347,553.936 12.316,0 0,20.637 -12.316,0 0,-20.637 z"
         id="path37781"
         inkscape:connector-curvature="0" />
    </clipPath>
    <clipPath
       clipPathUnits="userSpaceOnUse"
       id="clipPath37811">
      <path
         d="m 147.227,545.651 18.646,0 0,15.327 -18.646,0 0,-15.327 z"
         id="path37813"
         inkscape:connector-curvature="0" />
    </clipPath>
    <clipPath
       clipPathUnits="userSpaceOnUse"
       id="clipPath37843">
      <path
         d="m 165.022,554.327 12.61,0 0,20.521 -12.61,0 0,-20.521 z"
         id="path37845"
         inkscape:connector-curvature="0" />
    </clipPath>
    <clipPath
       clipPathUnits="userSpaceOnUse"
       id="clipPath37867">
      <path
         d="m 159.061,545.669 18.424,0 0,15.64 -18.424,0 0,-15.64 z"
         id="path37869"
         inkscape:connector-curvature="0" />
    </clipPath>
    <clipPath
       clipPathUnits="userSpaceOnUse"
       id="clipPath37899">
      <path
         d="m 126.819,500.755 18.101,0 0,27.21 -18.101,0 0,-27.21 z"
         id="path37901"
         inkscape:connector-curvature="0" />
    </clipPath>
    <clipPath
       clipPathUnits="userSpaceOnUse"
       id="clipPath37911">
      <path
         d="m 146.265,500.755 20.56,0 0,27.21 -20.56,0 0,-27.21 z"
         id="path37913"
         inkscape:connector-curvature="0" />
    </clipPath>
    <clipPath
       clipPathUnits="userSpaceOnUse"
       id="clipPath37923">
      <path
         d="m 167.747,511.435 10.147,0 0,16.53 -10.147,0 0,-16.53 z"
         id="path37925"
         inkscape:connector-curvature="0" />
    </clipPath>
    <clipPath
       clipPathUnits="userSpaceOnUse"
       id="clipPath37935">
      <path
         d="m 178.191,501.008 19.414,0 0,26.958 -19.414,0 0,-26.958 z"
         id="path37937"
         inkscape:connector-curvature="0" />
    </clipPath>
  </defs>
  <sodipodi:namedview
     id="base"
     pagecolor="#ffffff"
     bordercolor="#666666"
     borderopacity="1.0"
     inkscape:pageopacity="0.0"
     inkscape:pageshadow="2"
     inkscape:zoom="0.35"
     inkscape:cx="179.95487"
     inkscape:cy="658.01476"
     inkscape:document-units="px"
     inkscape:current-layer="layer1"
     showgrid="false"
     fit-margin-top="0"
     fit-margin-left="0"
     fit-margin-right="0"
     fit-margin-bottom="0"
     inkscape:window-width="1366"
     inkscape:window-height="705"
     inkscape:window-x="0"
     inkscape:window-y="27"
     inkscape:window-maximized="1" />
  <metadata
     id="metadata39885">
    <rdf:RDF>
      <cc:Work
         rdf:about="">
        <dc:format>image/svg+xml</dc:format>
        <dc:type
           rdf:resource="http://purl.org/dc/dcmitype/StillImage" />
        <dc:title></dc:title>
      </cc:Work>
    </rdf:RDF>
  </metadata>
  <g
     inkscape:label="Layer 1"
     inkscape:groupmode="layer"
     id="layer1"
     transform="translate(313.5263,-772.38973)">
    <g
       transform="matrix(15.573485,0,0,-15.573485,5018.7424,8994.5949)"
       id="g39619">
      <g
         transform="translate(-469.20946,0)"
         id="g37663">
        <g
           clip-path="url(#clipPath37667)"
           id="g37665">
          <g
             transform="translate(162.7505,573.2139)"
             id="g37671">
            <path
               inkscape:connector-curvature="0"
               id="path37673"
               style="fill:#ffffff;fill-opacity:1;fill-rule:nonzero;stroke:none"
               d="m 0,0 c 2.515,0 4.323,3.873 4.323,6.39 0,2.516 -2.037,4.555 -4.556,4.555 -2.514,0 -4.552,-2.039 -4.552,-4.555 C -4.785,3.873 -2.518,0 0,0" />
          </g>
          <g
             transform="translate(151.1421,564.9941)"
             id="g37675">
            <path
               inkscape:connector-curvature="0"
               id="path37677"
               style="fill:#ffffff;fill-opacity:1;fill-rule:nonzero;stroke:none"
               d="M 0,0 C 0.777,2.392 -2.343,5.311 -4.737,6.088 -7.131,6.867 -9.7,5.555 -10.479,3.163 -11.257,0.77 -9.945,-1.801 -7.553,-2.58 -5.16,-3.354 -0.777,-2.394 0,0" />
          </g>
          <g
             transform="translate(155.3735,551.4136)"
             id="g37679">
            <path
               inkscape:connector-curvature="0"
               id="path37681"
               style="fill:#ffffff;fill-opacity:1;fill-rule:nonzero;stroke:none"
               d="m 0,0 c -2.039,1.479 -5.778,-0.587 -7.255,-2.624 -1.476,-2.038 -1.027,-4.886 1.007,-6.361 2.038,-1.484 4.886,-1.032 6.364,1.003 C 1.595,-5.943 2.036,-1.477 0,0" />
          </g>
          <g
             transform="translate(169.5972,551.2432)"
             id="g37683">
            <path
               inkscape:connector-curvature="0"
               id="path37685"
               style="fill:#ffffff;fill-opacity:1;fill-rule:nonzero;stroke:none"
               d="m 0,0 c -2.035,-1.483 -1.227,-5.676 0.255,-7.714 1.478,-2.035 4.326,-2.483 6.362,-1.008 2.036,1.482 2.487,4.331 1.008,6.364 C 6.146,-0.319 2.037,1.476 0,0" />
          </g>
          <g
             transform="translate(184.4897,568.3159)"
             id="g37687">
            <path
               inkscape:connector-curvature="0"
               id="path37689"
               style="fill:#ffffff;fill-opacity:1;fill-rule:nonzero;stroke:none"
               d="M 0,0 C -0.775,2.394 -3.348,3.702 -5.738,2.925 -8.133,2.147 -11.111,-1.208 -10.332,-3.6 -9.557,-5.993 -5.317,-6.519 -2.924,-5.741 -0.529,-4.962 0.779,-2.392 0,0" />
          </g>
          <g
             transform="translate(164.5151,558.6479)"
             id="g37691">
            <path
               inkscape:connector-curvature="0"
               id="path37693"
               style="fill:#ffffff;fill-opacity:1;fill-rule:nonzero;stroke:none"
               d="m 0,0 c -0.779,-0.583 -1.488,-1.241 -2.127,-1.971 -0.61,0.65 -1.289,1.24 -2.031,1.765 -0.742,0.521 -1.526,0.966 -2.35,1.334 0.425,0.778 0.77,1.599 1.037,2.461 0.28,0.899 0.465,1.817 0.552,2.747 0.816,-0.15 1.648,-0.23 2.491,-0.23 l 0.182,0 C -1.271,6.124 -0.309,6.235 0.636,6.451 0.75,5.616 0.947,4.792 1.225,3.978 1.526,3.088 1.916,2.237 2.393,1.43 1.553,1.04 0.756,0.563 0,0 m 8.95,-4.339 c 0.675,-0.109 1.362,-0.018 1.976,0.26 0.777,0.303 1.422,0.88 1.806,1.628 0.423,0.815 0.504,1.763 0.225,2.638 -0.277,0.874 -0.894,1.6 -1.705,2.021 C 9.59,3.066 8.355,4.488 7.771,6.201 7.204,7.873 7.328,9.63 8.114,11.151 8.533,11.966 8.617,12.914 8.336,13.787 8.061,14.663 7.445,15.391 6.631,15.813 5.818,16.232 4.871,16.315 3.993,16.038 3.367,15.837 2.812,15.458 2.395,14.962 1.086,13.735 -0.589,13.047 -2.336,13.023 l -0.092,0 c -1.726,0 -3.324,0.657 -4.508,1.856 -0.419,0.425 -0.937,0.73 -1.502,0.893 -0.851,0.26 -1.769,0.182 -2.565,-0.212 -0.821,-0.415 -1.442,-1.135 -1.732,-2.003 -0.286,-0.873 -0.22,-1.823 0.194,-2.642 0.838,-1.671 1.002,-3.545 0.465,-5.275 -0.48,-1.547 -1.473,-2.808 -2.813,-3.599 -0.688,-0.22 -1.294,-0.655 -1.725,-1.244 -0.544,-0.735 -0.774,-1.664 -0.634,-2.566 0.139,-0.91 0.628,-1.725 1.367,-2.269 0.598,-0.438 1.318,-0.674 2.053,-0.674 l 0.004,0 0.114,0 c 0.266,0 0.534,0.03 0.792,0.089 1.714,0.171 3.393,-0.259 4.769,-1.235 1.438,-1.016 2.375,-2.511 2.631,-4.204 0.142,-0.906 0.631,-1.722 1.37,-2.265 0.597,-0.44 1.318,-0.674 2.05,-0.674 0.174,0 0.348,0.016 0.52,0.04 l 0.228,0.043 c 0.488,0.095 0.956,0.29 1.368,0.585 0.746,0.536 1.252,1.345 1.397,2.247 0.307,1.846 1.271,3.461 2.724,4.547 1.414,1.051 3.121,1.48 4.811,1.2" />
          </g>
        </g>
      </g>
      <g
         transform="translate(-469.20946,0)"
         id="g37695">
        <g
           clip-path="url(#clipPath37699)"
           id="g37697">
          <g
             transform="translate(162.7476,573.2139)"
             id="g37703" />
        </g>
      </g>
      <g
         transform="translate(-469.20946,0)"
         id="g37707">
        <g
           clip-path="url(#clipPath37711)"
           id="g37709">
          <g
             transform="translate(145.4683,562.1523)"
             id="g37715" />
        </g>
      </g>
      <g
         transform="translate(-469.20946,0)"
         id="g37719">
        <g
           clip-path="url(#clipPath37723)"
           id="g37721">
          <g
             transform="translate(151.8257,541.5537)"
             id="g37727" />
        </g>
      </g>
      <g
         transform="translate(-469.20946,0)"
         id="g37731">
        <g
           clip-path="url(#clipPath37735)"
           id="g37733">
          <g
             transform="translate(173.5386,541.6528)"
             id="g37739" />
        </g>
      </g>
      <g
         transform="translate(-469.20946,0)"
         id="g37743">
        <g
           clip-path="url(#clipPath37747)"
           id="g37745">
          <g
             transform="translate(179.1948,562.2393)"
             id="g37751">
            <path
               inkscape:connector-curvature="0"
               id="path37753"
               style="fill:#5c7f42;fill-opacity:1;fill-rule:nonzero;stroke:none"
               d="M 0,0 C -2.157,0.01 -4.485,0.764 -5.041,2.477 -5.126,2.737 -5.164,3.009 -5.168,3.282 -5.164,3.009 -5.126,2.737 -5.041,2.477 -4.485,0.764 -2.157,0.01 0,0 m 5.007,2.574 c 0.33,0.637 0.509,1.347 0.512,2.078 l 0,-0.011 C 5.513,3.915 5.334,3.205 5.007,2.574 m -10.175,0.744 0,0 c 0.012,2.275 2.599,4.995 4.721,5.683 0.463,0.153 0.936,0.225 1.4,0.225 -0.464,0 -0.937,-0.072 -1.4,-0.225 C -2.569,8.313 -5.156,5.593 -5.168,3.318 M 5.519,4.683 C 5.518,5.145 5.443,5.616 5.293,6.077 5.44,5.616 5.516,5.152 5.519,4.694 l 0,-0.011 M 5.293,6.077 C 4.951,7.131 4.26,7.974 3.394,8.52 4.26,7.974 4.951,7.131 5.293,6.077" />
          </g>
          <g
             transform="translate(179.2554,562.2393)"
             id="g37755" />
        </g>
      </g>
      <g
         transform="translate(-469.20946,0)"
         id="g37759">
        <g
           clip-path="url(#clipPath37763)"
           id="g37761">
          <g
             transform="translate(162.0874,564.7539)"
             id="g37767">
            <path
               inkscape:connector-curvature="0"
               id="path37769"
               style="fill:#b91f25;fill-opacity:1;fill-rule:nonzero;stroke:none"
               d="m 0,0 0.182,0.006 0.044,0 -0.044,0 L 0,0 m -0.041,0 -0.012,0 0.012,0 M -0.08,0 -0.109,0 -0.08,0 M -0.121,0 C -0.92,0.012 -1.712,0.085 -2.488,0.23 -1.712,0.085 -0.92,0.012 -0.121,0 m 0.382,0.006 0.006,0 -0.006,0 m 0.04,0 0.006,0 -0.006,0 m 0.044,0 0.006,0 -0.006,0 m 0.042,0 0.004,0.002 -0.004,-0.002 m 0.041,0.002 0.004,0 -0.004,0 m 0.243,0.01 0.006,0 -0.006,0 m 0.036,0.002 0.016,0 -0.016,0 m 0.037,0.004 0.024,0 -0.024,0 m 0.04,0 c 0.011,0 0.021,0 0.032,0.002 C 0.805,0.024 0.795,0.024 0.784,0.024 m 0.04,0.002 C 0.84,0.03 0.85,0.03 0.865,0.03 0.85,0.03 0.84,0.03 0.824,0.026 M 0.868,0.03 C 1.607,0.078 2.339,0.181 3.059,0.345 2.339,0.181 1.607,0.078 0.868,0.03 M 0,6.917 C -1.536,6.917 -2.973,7.441 -4.106,8.4 -2.973,7.441 -1.536,6.917 0,6.917 m 0.132,0 0,0 m -4.653,1.868 c 0,0.002 -0.002,0.002 -0.004,0.006 0.002,-0.004 0.004,-0.004 0.004,-0.006 m -0.018,0.018 0,0.006 0,-0.006 m -0.012,0.012 c -0.002,0.002 -0.002,0.006 -0.009,0.006 0.007,0 0.007,-0.004 0.009,-0.006 m -0.017,0.018 c 0,0 -0.003,0.006 -0.006,0.006 0.003,0 0.006,-0.006 0.006,-0.006 m -0.01,0.012 C -4.59,8.853 -4.6,8.863 -4.607,8.871 -4.6,8.863 -4.59,8.853 -4.578,8.845 m -0.029,0.026 c -0.387,0.362 -0.85,0.626 -1.35,0.777 -0.014,0.006 -0.03,0.012 -0.048,0.018 0.519,-0.151 0.995,-0.42 1.398,-0.795" />
          </g>
          <g
             transform="translate(162.0874,564.7539)"
             id="g37771" />
        </g>
      </g>
      <g
         transform="translate(-469.20946,0)"
         id="g37775">
        <g
           clip-path="url(#clipPath37779)"
           id="g37777">
          <g
             transform="translate(150.8052,553.936)"
             id="g37783">
            <path
               inkscape:connector-curvature="0"
               id="path37785"
               style="fill:#303539;fill-opacity:1;fill-rule:nonzero;stroke:none"
               d="m 0,0 c -0.061,0 -0.124,0 -0.183,0.004 l 0.065,0 0.006,0 L 0,0" />
          </g>
          <g
             transform="translate(150.8052,553.936)"
             id="g37787">
            <path
               inkscape:connector-curvature="0"
               id="path37789"
               style="fill:#2e397d;fill-opacity:1;fill-rule:nonzero;stroke:none"
               d="m 0,0 -0.112,0.004 c 0.173,0 0.341,0.014 0.511,0.038 0.135,0.02 0.268,0.036 0.399,0.049 C 0.538,0.03 0.269,0 0,0" />
          </g>
          <g
             transform="translate(158.0073,559.7764)"
             id="g37791">
            <path
               inkscape:connector-curvature="0"
               id="path37793"
               style="fill:#303539;fill-opacity:1;fill-rule:nonzero;stroke:none"
               d="M 0,0 0,0 C 0.311,0.569 0.58,1.164 0.808,1.779 0.58,1.164 0.311,0.569 0,0 M 0.808,1.785 C 0.812,1.793 0.814,1.805 0.817,1.811 0.814,1.805 0.812,1.793 0.808,1.785 M 0.824,1.827 C 0.828,1.831 0.828,1.84 0.83,1.846 0.828,1.84 0.828,1.831 0.824,1.827 M 0.84,1.864 C 0.84,1.87 0.842,1.876 0.842,1.882 0.842,1.876 0.84,1.87 0.84,1.864 m 0.014,0.044 c 0,0.004 0,0.004 0,0.004 0,0 0,0 0,-0.004 M 1.037,2.461 C 1.041,2.473 1.045,2.485 1.051,2.503 1.045,2.485 1.041,2.473 1.037,2.461 M 1.051,2.505 C 1.056,2.521 1.059,2.533 1.062,2.542 1.059,2.533 1.056,2.521 1.051,2.505 M 1.063,2.546 C 1.327,3.417 1.505,4.31 1.592,5.208 1.505,4.31 1.327,3.417 1.063,2.546 m -6.686,1.803 0,0 m 0.008,0.014 0.002,0.006 -0.002,-0.006 m 0.004,0.014 c 0,0.004 0.004,0.01 0.004,0.01 0,0 -0.004,-0.006 -0.004,-0.01 m 0.007,0.021 c 0.001,0 0.001,0.007 0.001,0.009 0,-0.002 0,-0.009 -0.001,-0.009 M -5.6,4.417 -5.596,4.424 -5.6,4.417 m 0.007,0.018 C -5.591,4.437 -5.591,4.44 -5.588,4.446 -5.591,4.44 -5.591,4.437 -5.593,4.435 m 0.008,0.019 c 0.001,0.004 0.001,0.006 0.001,0.01 0,-0.004 0,-0.006 -0.001,-0.01 m 0.003,0.018 c 0.004,0.004 0.004,0.01 0.004,0.012 0,-0.002 0,-0.008 -0.004,-0.012 m 0.008,0.016 C -5.572,4.5 -5.572,4.506 -5.568,4.512 -5.572,4.506 -5.572,4.5 -5.574,4.488 m 1.194,9.995 c 0.444,0.204 0.926,0.307 1.409,0.313 l 0.057,0 c 0.33,-0.006 0.664,-0.053 0.989,-0.152 -0.018,0.005 -0.036,0.005 -0.054,0.013 -0.317,0.092 -0.642,0.137 -0.966,0.137 -0.494,0 -0.982,-0.103 -1.435,-0.311" />
          </g>
          <g
             transform="translate(158.0073,559.7764)"
             id="g37795" />
          <g
             transform="translate(159.5991,564.9844)"
             id="g37799">
            <path
               inkscape:connector-curvature="0"
               id="path37801"
               style="fill:#2e292c;fill-opacity:1;fill-rule:nonzero;stroke:none"
               d="M 0,0 -0.003,0 0,0 M -3.469,9.417 C -3.487,9.423 -3.504,9.429 -3.52,9.436 -3.537,9.441 -3.556,9.443 -3.57,9.449 -3.553,9.443 -3.535,9.441 -3.517,9.436 -3.499,9.429 -3.482,9.423 -3.469,9.417" />
          </g>
          <g
             transform="translate(159.5991,564.9844)"
             id="g37803" />
        </g>
      </g>
      <g
         transform="translate(-469.20946,0)"
         id="g37807">
        <g
           clip-path="url(#clipPath37811)"
           id="g37809">
          <g
             transform="translate(162.4321,545.6509)"
             id="g37815">
            <path
               inkscape:connector-curvature="0"
               id="path37817"
               style="fill:#e7232b;fill-opacity:1;fill-rule:nonzero;stroke:none"
               d="M 0,0 C 0.167,0 0.337,0.012 0.505,0.038 L 0.603,0.056 C 0.628,0.062 0.653,0.065 0.677,0.071 0.622,0.056 0.563,0.047 0.505,0.038 0.337,0.012 0.167,0 0,0 m -0.028,0 c -0.729,0.002 -1.444,0.236 -2.035,0.67 -0.741,0.543 -1.233,1.359 -1.372,2.269 -0.254,1.689 -1.189,3.185 -2.631,4.2 1.442,-1.015 2.377,-2.509 2.631,-4.2 C -3.296,2.029 -2.804,1.213 -2.063,0.67 -1.472,0.236 -0.757,0.002 -0.028,0 m -0.016,11.03 c -0.609,0.646 -1.289,1.238 -2.031,1.761 0.742,-0.523 1.422,-1.115 2.031,-1.761 m -2.164,1.852 0,0 m -0.029,0.024 c -0.002,0 -0.004,0.002 -0.006,0.002 0.002,0 0.004,-0.002 0.006,-0.002 m -0.031,0.018 c -0.003,0.006 -0.008,0.006 -0.011,0.012 0.003,-0.006 0.008,-0.006 0.011,-0.012 m -0.03,0.02 c -0.006,0.006 -0.012,0.01 -0.017,0.015 0.005,-0.005 0.011,-0.009 0.017,-0.015 m -0.03,0.021 c -0.007,0.006 -0.015,0.011 -0.026,0.016 0.011,-0.005 0.019,-0.01 0.026,-0.016 m -0.03,0.02 c -0.657,0.441 -1.348,0.821 -2.067,1.14 l 0,0.002 c 0.719,-0.321 1.41,-0.701 2.067,-1.142" />
          </g>
          <g
             transform="translate(162.4321,545.6509)"
             id="g37819" />
          <g
             transform="translate(150.6226,553.9404)"
             id="g37823">
            <path
               inkscape:connector-curvature="0"
               id="path37825"
               style="fill:#e7232b;fill-opacity:1;fill-rule:nonzero;stroke:none"
               d="m 0,0 c -0.713,0.014 -1.406,0.244 -1.988,0.67 -0.74,0.545 -1.229,1.358 -1.369,2.268 -0.025,0.169 -0.039,0.34 -0.039,0.508 0,-0.168 0.014,-0.339 0.039,-0.508 0.14,-0.91 0.629,-1.723 1.369,-2.268 C -1.406,0.244 -0.713,0.014 0,0 m -2.711,5.522 c 0,0.005 0.004,0.005 0.004,0.005 0,0 -0.004,0 -0.004,-0.005 m 0.01,0.015 c 0,0.004 0.004,0.005 0.004,0.005 0,0 -0.004,-10e-4 -0.004,-0.005 m 0.013,0.018 c 0,0.004 0.002,0.006 0.004,0.006 -0.002,0 -0.004,-0.006 -0.004,-0.006 m 0.017,0.017 0.003,0.006 -0.003,-0.006 m 0.013,0.018 c 0,0.004 0.002,0.006 0.002,0.006 0,0 -0.002,-0.002 -0.002,-0.006 m 0.012,0.016 c 0,0.002 0.003,0.002 0.005,0.008 C -2.643,5.608 -2.646,5.608 -2.646,5.606 m 0.013,0.014 c 0,0.004 0,0.006 0.004,0.006 -0.004,0 -0.004,-0.002 -0.004,-0.006 m 0.008,0.016 c 0.006,0.006 0.008,0.011 0.013,0.013 C -2.617,5.647 -2.619,5.642 -2.625,5.636 m 0.019,0.02 c 0.002,0.006 0.005,0.006 0.007,0.011 C -2.601,5.662 -2.604,5.662 -2.606,5.656 m 0.01,0.011 c 0.006,0.006 0.009,0.012 0.012,0.012 -0.003,0 -0.006,-0.006 -0.012,-0.012 m 0.012,0.015 c 0.421,0.499 0.973,0.872 1.591,1.066 l -0.003,0 C -1.613,6.55 -2.166,6.181 -2.584,5.682" />
          </g>
          <g
             transform="translate(150.6226,553.9404)"
             id="g37827" />
          <g
             transform="translate(150.687,553.936)"
             id="g37831">
            <path
               inkscape:connector-curvature="0"
               id="path37833"
               style="fill:#323037;fill-opacity:1;fill-rule:nonzero;stroke:none"
               d="M 0,0 -0.064,0 0,0 0.002,0 0.006,0 0,0 m 7.32,5.84 z" />
          </g>
          <g
             transform="translate(150.687,553.936)"
             id="g37835" />
        </g>
      </g>
      <g
         transform="translate(-469.20946,0)"
         id="g37839">
        <g
           clip-path="url(#clipPath37843)"
           id="g37841">
          <g
             transform="translate(175.4272,554.5591)"
             id="g37847">
            <path
               inkscape:connector-curvature="0"
               id="path37849"
               style="fill:#435d40;fill-opacity:1;fill-rule:nonzero;stroke:none"
               d="M 0,0 C 0.006,0.004 0.014,0.01 0.02,0.01 0.676,0.27 1.232,0.718 1.621,1.297 1.228,0.712 0.66,0.258 0,0 m 1.623,1.301 c 0.002,0.002 0.006,0.008 0.006,0.012 0,-0.004 -0.004,-0.01 -0.006,-0.012 m 0.012,0.018 c 0,0.002 0.004,0.008 0.006,0.014 C 1.639,1.327 1.635,1.321 1.635,1.319 m 0.011,0.014 c 0,0.005 0.003,0.009 0.007,0.011 C 1.649,1.342 1.646,1.338 1.646,1.333 m 0.01,0.023 c 0.003,0 0.006,0 0.008,0.006 C 1.662,1.356 1.659,1.356 1.656,1.356 m 0.015,0.018 c 0,0 0.003,0 0.003,0.002 0,-0.002 -0.003,-0.002 -0.003,-0.002 m 0.011,0.018 c 0,0 0,0.002 0.004,0.006 C 1.682,1.394 1.682,1.392 1.682,1.392 m 0.055,0.095 0,0 m 0.015,0.018 0,0.002 0,-0.002 m 0.008,0.016 0,0 m 0.01,0.018 c 0,0.003 0,0.003 10e-4,0.003 -10e-4,0 -10e-4,0 -10e-4,-0.003 m 0.01,0.018 c 0,0.004 0,0.004 0.002,0.004 -0.002,0 -0.002,0 -0.002,-0.004 m 0.011,0.022 0,0.002 0,-0.002 m 0.01,0.017 c 0,0.002 0.003,0.002 0.003,0.002 0,0 -0.003,0 -0.003,-0.002 m 0.01,0.02 0,0 m 0.4,1.618 C 2.205,3.563 2.16,3.895 2.065,4.212 2.16,3.895 2.205,3.563 2.211,3.234 M -8.523,5.519 C -8.951,6.249 -9.311,7.01 -9.598,7.813 -9.311,7.01 -8.951,6.249 -8.523,5.521 l 0,-0.002 M 0.785,6.021 C 0.645,6.124 0.495,6.219 0.34,6.296 -0.809,6.893 -1.754,7.754 -2.422,8.795 -1.754,7.754 -0.809,6.893 0.34,6.296 0.495,6.219 0.645,6.124 0.785,6.021 M -9.604,7.825 c -0.003,0.006 -0.005,0.012 -0.007,0.018 0.002,-0.006 0.004,-0.012 0.007,-0.018 m -0.017,0.048 0,0.004 0,-0.004 m -0.182,0.549 -0.002,0.006 0.002,-0.006 m -0.013,0.036 c 0,0.006 0,0.018 -0.005,0.023 0.005,-0.005 0.005,-0.017 0.005,-0.023 M -9.823,8.49 c -0.206,0.677 -0.359,1.356 -0.456,2.048 0.099,-0.686 0.25,-1.371 0.456,-2.048 m 1.3,10.555 c 0.398,0.484 0.929,0.848 1.53,1.054 -0.597,-0.206 -1.126,-0.57 -1.525,-1.048 -0.002,0 -0.005,-0.006 -0.005,-0.006 m 1.53,1.054 c 0.011,0.004 0.02,0.005 0.03,0.009 -0.01,-0.004 -0.019,-0.005 -0.03,-0.009 m 0.032,0.011 c 0,0 0.006,0.005 0.008,0.005 -0.002,0 -0.006,-0.005 -0.006,-0.005 m 0.017,0.007 c 0,0 0.003,0.004 0.006,0.004 -0.003,0 -0.005,-0.004 -0.005,-0.004 m 0.023,0.009 c 0.014,0.002 0.027,0.006 0.039,0.012 -0.012,-0.006 -0.025,-0.01 -0.039,-0.012" />
          </g>
          <g
             transform="translate(175.4468,554.5708)"
             id="g37851" />
          <g
             transform="translate(165.1479,565.0991)"
             id="g37855">
            <path
               inkscape:connector-curvature="0"
               id="path37857"
               style="fill:#44282d;fill-opacity:1;fill-rule:nonzero;stroke:none"
               d="M 0,0 Z" />
          </g>
          <g
             transform="translate(165.1479,565.0991)"
             id="g37859" />
        </g>
      </g>
      <g
         transform="translate(-469.20946,0)"
         id="g37863">
        <g
           clip-path="url(#clipPath37867)"
           id="g37865">
          <g
             transform="translate(163.1089,545.7183)"
             id="g37871">
            <path
               inkscape:connector-curvature="0"
               id="path37873"
               style="fill:#eb641b;fill-opacity:1;fill-rule:nonzero;stroke:none"
               d="M 0,0 C 0.029,0.006 0.057,0.012 0.085,0.018 0.564,0.115 1.021,0.307 1.424,0.597 2.169,1.132 2.676,1.941 2.82,2.844 3.128,4.69 4.094,6.304 5.545,7.391 5.584,7.415 5.621,7.445 5.659,7.474 5.621,7.445 5.584,7.415 5.545,7.391 4.094,6.304 3.128,4.69 2.82,2.844 2.676,1.941 2.169,1.132 1.424,0.597 0.996,0.29 0.51,0.089 0,0 m 10.922,8.545 c -0.038,0 -0.072,0 -0.108,0.004 0.036,-0.004 0.07,-0.004 0.104,-0.004 0.48,0 0.957,0.101 1.394,0.294 0,0.002 0.003,0.002 0.006,0.002 C 11.879,8.646 11.401,8.545 10.922,8.545 m -0.121,0.004 -0.004,0 0.004,0 M 10.359,8.591 C 10.342,8.597 10.33,8.597 10.32,8.603 10.33,8.597 10.342,8.597 10.359,8.591 M 10.281,8.604 C 9.972,8.652 9.657,8.676 9.35,8.676 c 0.307,0 0.622,-0.024 0.931,-0.072 m -0.944,0.072 0.01,0 -0.01,0 m -10.058,2.286 0,0 c 0.558,0.635 1.17,1.22 1.84,1.746 -0.67,-0.526 -1.282,-1.111 -1.84,-1.746 m 1.84,1.746 c 0.012,0.01 0.019,0.018 0.033,0.027 C 1.138,12.726 1.131,12.718 1.119,12.708 m 0.045,0.036 C 1.17,12.75 1.177,12.755 1.183,12.761 1.177,12.755 1.17,12.75 1.164,12.744 m 0.033,0.029 c 0.007,0.002 0.016,0.008 0.022,0.014 C 1.213,12.781 1.204,12.775 1.197,12.773 m 0.037,0.026 C 1.24,12.803 1.243,12.809 1.25,12.815 1.243,12.809 1.24,12.803 1.234,12.799 m 0.036,0.028 c 0.005,0.006 0.009,0.007 0.015,0.011 C 1.279,12.834 1.275,12.833 1.27,12.827 m 0.033,0.026 c 0.009,0.003 0.011,0.009 0.018,0.015 C 1.314,12.862 1.312,12.856 1.303,12.853 M 1.34,12.88 c 0.006,0.002 0.01,0.008 0.017,0.012 C 1.35,12.888 1.346,12.882 1.34,12.88 m 0.029,0.024 c 0.015,0.01 0.027,0.016 0.037,0.026 -0.01,-0.01 -0.022,-0.016 -0.037,-0.026 m 0.037,0.026 c 0.753,0.563 1.553,1.043 2.389,1.432 l 0,-0.002 C 2.959,13.969 2.159,13.493 1.406,12.93" />
          </g>
          <g
             transform="translate(163.1938,545.7363)"
             id="g37875" />
          <g
             transform="translate(163.0347,545.7065)"
             id="g37879">
            <path
               inkscape:connector-curvature="0"
               id="path37881"
               style="fill:#e52127;fill-opacity:1;fill-rule:nonzero;stroke:none"
               d="M 0,0 0.131,0.023 C 0.139,0.025 0.152,0.03 0.159,0.03 0.135,0.023 0.104,0.018 0.074,0.012 0.049,0.006 0.025,0.004 0,0 m -0.646,10.97 0,0 0,0.004 0,-0.004" />
          </g>
          <g
             transform="translate(162.519,545.6689)"
             id="g37883" />
          <g
             transform="translate(175.4204,554.5571)"
             id="g37887">
            <path
               inkscape:connector-curvature="0"
               id="path37889"
               style="fill:#4a4536;fill-opacity:1;fill-rule:nonzero;stroke:none"
               d="m 0,0 c 0.007,0.002 0.013,0.006 0.021,0.012 l 0.005,0 C 0.021,0.012 0.013,0.006 0.007,0.002 0.004,0.002 0.003,0.002 0,0 m -8.517,5.521 0,0 0.004,0 -0.004,0" />
          </g>
          <g
             transform="translate(174.1753,554.3271)"
             id="g37891" />
        </g>
      </g>
      <g
         transform="translate(-469.20946,0)"
         id="g37895">
        <g
           clip-path="url(#clipPath37899)"
           id="g37897">
          <g
             transform="translate(144.9194,522.4702)"
             id="g37903">
            <path
               inkscape:connector-curvature="0"
               id="path37905"
               style="fill:#ffffff;fill-opacity:1;fill-rule:nonzero;stroke:none"
               d="M 0,0 C 0,-0.718 -0.183,-1.128 -0.549,-1.229 L -1.665,-1.531 C -2.904,-1.848 -3.463,-3.034 -3.334,-5.09 l 0.74,-11.334 c 0.094,-1.69 -0.281,-2.842 -1.123,-3.458 l -1.451,-1.083 c -0.732,-0.498 -1.366,-0.75 -1.904,-0.75 l -0.453,0 0,13.14 c 0,2.325 0.402,4.139 1.211,5.442 l 0.74,1.225 0,0.331 -10.287,0 c -1.494,0 -2.243,0.816 -2.243,2.457 l 0,2.555 c 0,0.938 0.325,1.523 0.978,1.759 l 0.927,0.297 0.338,-0.501 c 0.394,-0.617 0.92,-0.925 1.568,-0.925 l 12.436,0 C -0.619,4.065 0,3.411 0,2.106 L 0,0 Z" />
          </g>
        </g>
      </g>
      <g
         transform="translate(-469.20946,0)"
         id="g37907">
        <g
           clip-path="url(#clipPath37911)"
           id="g37909">
          <g
             transform="translate(166.8247,521.8438)"
             id="g37915">
            <path
               inkscape:connector-curvature="0"
               id="path37917"
               style="fill:#ffffff;fill-opacity:1;fill-rule:nonzero;stroke:none"
               d="m 0,0 c -0.622,-0.887 -0.916,-2.064 -0.884,-3.536 0,-0.099 0.034,-0.593 0.098,-1.48 l 0.736,-10.631 c 0.129,-1.755 -0.303,-2.992 -1.285,-3.712 l -1.355,-1.029 c -0.655,-0.466 -1.338,-0.7 -2.049,-0.7 l -0.289,0 0,15.345 c 0,1.205 0.31,2.441 0.929,3.71 l 0.286,0.603 c 0.066,0.133 0.08,0.252 0.048,0.353 -0.031,0.081 -0.127,0.127 -0.287,0.127 l -10.004,0 c -0.521,0 -0.924,-0.26 -1.202,-0.781 -0.278,-0.516 -0.403,-1.069 -0.369,-1.654 l 0.784,-12.688 c 0.1,-1.674 -0.354,-2.85 -1.357,-3.536 l -1.429,-1.029 c -0.222,-0.133 -0.531,-0.234 -0.927,-0.3 -0.51,-0.065 -0.82,-0.117 -0.929,-0.15 l -0.287,0 0,14.365 c 0,2.227 0.681,4.147 2.048,5.773 l -0.57,0 c -1.51,0 -2.265,0.815 -2.265,2.457 l 0,2.555 c 0,0.938 0.327,1.522 0.978,1.758 l 0.932,0.298 0.355,-0.502 C -17.913,5 -17.397,4.692 -16.746,4.692 l 13.579,0 C -1.056,4.692 0,3.645 0,1.555 L 0,0 Z" />
          </g>
        </g>
      </g>
      <g
         transform="translate(-469.20946,0)"
         id="g37919">
        <g
           clip-path="url(#clipPath37923)"
           id="g37921">
          <g
             transform="translate(177.4878,524.2788)"
             id="g37927">
            <path
               inkscape:connector-curvature="0"
               id="path37929"
               style="fill:#ffffff;fill-opacity:1;fill-rule:nonzero;stroke:none"
               d="m 0,0 c 0.271,-0.722 0.406,-1.798 0.406,-3.238 0,-1.721 -0.388,-3.568 -1.168,-5.541 -0.856,-2.122 -1.769,-3.409 -2.738,-3.861 -0.192,-0.101 -0.42,-0.151 -0.691,-0.151 l -1.12,-0.051 c -0.253,0 -0.497,0.111 -0.726,0.329 -0.231,0.216 -0.314,0.412 -0.25,0.602 1.492,2.287 2.238,4.429 2.238,6.416 0,1.406 -0.387,2.11 -1.168,2.11 l -2.619,0 c -0.617,0 -1.092,0.147 -1.418,0.448 -0.324,0.302 -0.488,0.936 -0.488,1.908 l 0,2.655 c 0,0.938 0.328,1.523 0.978,1.759 l 0.928,0.298 0.335,-0.502 C -7.105,2.564 -6.58,2.257 -5.928,2.257 l 2.618,0 C -1.645,2.257 -0.538,1.503 0,0" />
          </g>
        </g>
      </g>
      <g
         transform="translate(-469.20946,0)"
         id="g37931">
        <g
           clip-path="url(#clipPath37935)"
           id="g37933">
          <g
             transform="translate(197.605,505.7705)"
             id="g37939">
            <path
               inkscape:connector-curvature="0"
               id="path37941"
               style="fill:#ffffff;fill-opacity:1;fill-rule:nonzero;stroke:none"
               d="M 0,0 -0.596,-3.109 C -0.723,-3.827 -0.965,-4.285 -1.322,-4.474 -1.68,-4.67 -2.199,-4.763 -2.882,-4.763 l -16.532,0 0,0.448 0.765,3.238 c 0.17,0.718 0.378,1.166 0.616,1.341 0.238,0.174 0.715,0.263 1.429,0.263 l 9.815,0 0,10.632 c 0,2.639 -1.223,3.964 -3.672,3.964 l -5.832,0 c -1.506,0 -2.264,0.815 -2.264,2.457 l 0,2.555 c 0,0.938 0.327,1.523 0.975,1.759 l 0.932,0.297 0.357,-0.502 c 0.38,-0.616 0.897,-0.924 1.549,-0.924 l 6.691,0 c 3.733,0 5.598,-2.042 5.598,-6.121 l 0,-11.86 c 0,-1.404 0.477,-2.157 1.43,-2.257 L 0,0.426 0,0 Z" />
          </g>
        </g>
      </g>
    </g>
  </g>
</svg>
